<?xml version="1.0" encoding="utf-8"?>
<!-- Generator: Adobe Illustrator 27.5.0, SVG Export Plug-In . SVG Version: 6.00 Build 0)  -->
<svg version="1.1" id="_x2018_ëîé_x5F_1" xmlns="http://www.w3.org/2000/svg" xmlns:xlink="http://www.w3.org/1999/xlink"
	 x="0px" y="0px" viewBox="0 0 4500 4500" style="enable-background:new 0 0 4500 4500;" xml:space="preserve">
<rect style="fill:transparent;" width="4500" height="4500"/>
<g>
	<g>
		<g>
			<g>
				<path style="fill:#FFFFFF;" d="M2123.841,1048.107c14.644-29.479,23.78-61.158,27.154-94.156l0.043-0.425l-41.116-4.134
					c2.151-21.358,1.344-42.333-2.085-62.519l40.743-6.921c-5.526-32.531-16.796-63.525-33.496-92.121l-35.683,20.839
					c-10.566-18.092-23.524-34.69-38.484-49.326l28.9-29.54c-23.672-23.159-50.983-41.639-81.174-54.927l-16.646,37.822
					c-18.779-8.265-38.934-14.149-60.126-17.242l5.97-40.892c-3.927-0.574-7.926-1.07-11.887-1.475
					c-28.894-2.954-57.823-1.363-85.983,4.729l8.738,40.389c-20.677,4.473-40.427,11.718-58.798,21.361l-19.206-36.591
					c-29.218,15.337-55.2,35.586-77.222,60.184l30.788,27.563c-13.86,15.481-25.709,32.873-35.093,51.798l-37.025-18.357
					c-14.589,29.426-23.693,61.04-27.06,93.967l-0.018,0.178l41.108,4.203c-2.167,21.357-1.375,42.332,2.038,62.521l-40.748,6.89
					c5.501,32.536,16.747,63.538,33.425,92.147l35.699-20.812c10.552,18.101,23.497,34.708,38.446,49.355l-28.922,29.518
					c23.654,23.176,50.951,41.678,81.131,54.989l16.675-37.808c18.773,8.28,38.925,14.178,60.114,17.287l-5.999,40.889
					c3.995,0.586,8.064,1.092,12.094,1.504c28.822,2.947,57.682,1.371,85.776-4.684l-8.706-40.395
					c20.681-4.457,40.437-11.688,58.814-21.316l19.178,36.604c29.23-15.314,55.227-35.543,77.268-60.125l-30.766-27.586
					c13.872-15.471,25.734-32.854,35.132-51.771L2123.841,1048.107z M1866.527,1038.675c-62.206-6.36-107.478-61.944-101.117-124.15
					c6.361-62.206,61.944-107.478,124.151-101.117c62.206,6.36,107.478,61.945,101.117,124.151
					C1984.317,999.764,1928.733,1045.036,1866.527,1038.675z"/>
				<path d="M1878.333,1202.936c-9.471,0-18.962-0.484-28.453-1.455c-4.07-0.416-8.175-0.927-12.202-1.517l-2.474-0.363
					l6.001-40.902c-19.325-3.043-38.137-8.453-55.995-16.101l-16.681,37.82l-2.287-1.009
					c-30.457-13.434-58.002-32.104-81.872-55.491l-1.786-1.75l28.931-29.527c-13.787-13.797-25.818-29.243-35.809-45.97
					l-35.71,20.818l-1.259-2.16c-16.83-28.868-28.179-60.154-33.73-92.989l-0.417-2.465l40.761-6.892
					c-3.031-19.176-3.668-38.743-1.896-58.236l-41.121-4.205l0.27-2.663c3.397-33.227,12.585-65.13,27.308-94.825l1.11-2.24
					l37.038,18.363c8.835-17.352,19.818-33.563,32.689-48.25l-30.798-27.572l1.667-1.863c22.222-24.821,48.439-45.254,77.923-60.73
					l2.214-1.162l19.212,36.602c17.39-8.894,35.792-15.58,54.771-19.899l-8.741-40.402l2.443-0.528
					c28.417-6.148,57.61-7.755,86.767-4.773c3.997,0.409,8.032,0.909,11.994,1.488l2.474,0.361l-5.972,40.905
					c19.326,3.029,38.142,8.424,56.007,16.059l16.652-37.834l2.289,1.007c30.468,13.41,58.029,32.059,81.916,55.428l1.787,1.748
					l-28.909,29.549c13.798,13.786,25.842,29.224,35.845,45.942l35.694-20.845l1.261,2.159
					c16.852,28.855,28.224,60.132,33.802,92.963l0.418,2.465l-40.756,6.924c3.046,19.173,3.697,38.739,1.94,58.232l41.133,4.136
					l-0.298,2.916c-3.404,33.298-12.624,65.266-27.402,95.015l-1.112,2.239l-37.022-18.392
					c-8.849,17.345-19.845,33.548-32.727,48.225l30.776,27.595l-1.669,1.861c-22.242,24.806-48.474,45.218-77.969,60.67l-2.214,1.16
					l-19.184-36.616c-17.398,8.881-35.805,15.553-54.786,19.857l8.708,40.408l-2.444,0.527
					C1917.337,1200.87,1897.884,1202.935,1878.333,1202.936z M1840.879,1195.368c3.155,0.433,6.343,0.815,9.51,1.139
					c27.723,2.834,55.483,1.446,82.549-4.125l-8.703-40.383l2.444-0.527c20.215-4.357,39.79-11.452,58.181-21.086l2.214-1.16
					l19.172,36.594c27.331-14.636,51.763-33.648,72.68-56.556l-30.758-27.579l1.669-1.861
					c13.856-15.454,25.549-32.685,34.755-51.214l1.112-2.239l37,18.38c13.568-27.953,22.169-57.868,25.585-88.989l-41.104-4.133
					l0.25-2.488c2.085-20.707,1.392-41.516-2.063-61.85l-0.418-2.464l40.731-6.919c-5.473-30.52-16.064-59.647-31.509-86.652
					l-35.673,20.833l-1.261-2.159c-10.443-17.881-23.253-34.3-38.074-48.799l-1.788-1.749l28.893-29.531
					c-22.435-21.556-48.1-38.923-76.355-51.668l-16.642,37.812l-2.289-1.007c-18.89-8.314-38.902-14.053-59.48-17.057l-2.474-0.361
					l5.968-40.881c-3.089-0.422-6.208-0.795-9.305-1.112c-27.797-2.84-55.624-1.438-82.754,4.168l8.735,40.377l-2.443,0.528
					c-20.213,4.373-39.783,11.482-58.165,21.131l-2.214,1.162l-19.2-36.58c-27.321,14.658-51.739,33.689-72.638,56.611l30.78,27.555
					l-1.667,1.863c-13.845,15.465-25.525,32.706-34.715,51.241l-1.11,2.24l-37.015-18.352
					c-13.479,27.826-22.04,57.597-25.467,88.558l41.096,4.202l-0.252,2.485c-2.101,20.706-1.423,41.516,2.016,61.852l0.417,2.465
					l-40.737,6.888c5.449,30.524,16.018,59.659,31.443,86.675l35.689-20.806l1.259,2.16c10.43,17.89,23.227,34.318,38.036,48.829
					l1.786,1.75l-28.914,29.51c22.419,21.573,48.07,38.959,76.314,51.727l16.671-37.798l2.287,1.009
					c18.883,8.329,38.891,14.082,59.468,17.101l2.474,0.363L1840.879,1195.368z M1878.26,1041.775
					c-3.978,0-7.977-0.203-11.987-0.613c-63.478-6.49-109.84-63.414-103.35-126.892c6.49-63.477,63.412-109.841,126.892-103.35
					c63.478,6.49,109.84,63.414,103.35,126.892c-3.144,30.75-18.074,58.435-42.041,77.955
					C1930.282,1032.742,1904.777,1041.775,1878.26,1041.775z M1877.96,815.315c-56.036,0-104.243,42.537-110.063,99.465
					c-6.21,60.735,38.149,115.199,98.885,121.409l0,0c29.422,3.009,58.253-5.621,81.184-24.297
					c22.931-18.677,37.217-45.166,40.225-74.587c6.21-60.735-38.149-115.2-98.885-121.409
					C1885.499,815.505,1881.708,815.315,1877.96,815.315z"/>
			</g>
			<g>
				<path d="M1860.456,1098.051c-45.945-4.698-87.311-27.006-116.478-62.817c-29.167-35.81-42.642-80.835-37.944-126.78
					c4.698-45.945,27.007-87.311,62.817-116.478c35.81-29.167,80.835-42.642,126.78-37.944
					c45.945,4.698,87.311,27.007,116.478,62.817c29.167,35.81,42.642,80.835,37.944,126.78
					c-4.698,45.945-27.006,87.311-62.817,116.478C1951.426,1089.274,1906.401,1102.749,1860.456,1098.051z M1895.384,756.446
					c-45.301-4.632-89.694,8.654-125.001,37.412c-35.308,28.757-57.303,69.542-61.935,114.843
					c-4.632,45.3,8.654,89.693,37.411,125.001c28.757,35.308,69.543,57.303,114.843,61.935
					c45.301,4.632,89.693-8.655,125.001-37.412c35.308-28.757,57.303-69.542,61.935-114.843
					c4.632-45.301-8.654-89.693-37.411-125.001C1981.47,783.074,1940.685,761.078,1895.384,756.446z"/>
			</g>
		</g>
		<g>
			<path d="M1884.146,1246.505l21.997-21.752c-19.052-19.268-43.224-32.195-69.902-37.385c-0.122-0.024-0.245-0.048-0.367-0.071
				l-5.79,30.387c-10.429-2.002-20.795-2.367-30.83-1.269l-3.364-30.748c-26.917,2.945-52.074,13.836-72.751,31.497l20.092,23.524
				c-7.804,6.666-14.648,14.505-20.228,23.319l-26.137-16.547c-8.961,14.154-15.136,29.725-18.354,46.282
				c-1.938,9.972-2.751,20.139-2.417,30.219l30.916-1.026c0.348,10.491,2.296,20.703,5.643,30.347l-29.225,10.143
				c8.896,25.632,25.088,47.737,46.824,63.925l18.476-24.808c8.159,6.077,17.305,11.007,27.243,14.512l-10.292,29.174
				c6.226,2.196,12.689,3.953,19.209,5.22c20.11,3.909,40.292,3.251,59.983-1.956l-7.907-29.905
				c10.056-2.659,19.599-6.816,28.331-12.255l16.358,26.26c23.095-14.386,41.072-35.092,51.987-59.88l-28.312-12.467
				c3.055-6.939,5.396-14.32,6.903-22.076c0.5-2.575,0.899-5.146,1.202-7.709l30.719,3.632c3.187-26.955-1.789-53.928-14.389-78.002
				l-27.41,14.346C1897.564,1262.28,1891.427,1253.868,1884.146,1246.505z M1800.954,1368.803
				c-27.281-5.302-45.099-31.717-39.796-58.998c5.302-27.281,31.717-45.099,58.998-39.796c27.281,5.303,45.099,31.717,39.796,58.998
				C1854.649,1356.288,1828.235,1374.105,1800.954,1368.803z"/>
			<g>
				<path d="M1872.135,1354.948c-19.794,33.838-63.428,45.263-97.266,25.469c-33.838-19.794-45.263-63.428-25.468-97.266
					c19.795-33.838,63.428-45.263,97.266-25.469C1880.504,1277.476,1891.929,1321.109,1872.135,1354.948z M1751.62,1284.449
					c-19.078,32.614-8.066,74.669,24.547,93.747c32.614,19.078,74.669,8.067,93.747-24.547
					c19.078-32.614,8.067-74.669-24.547-93.747C1812.754,1240.823,1770.699,1251.835,1751.62,1284.449z"/>
			</g>
		</g>
		<g>
			<g>
				<path style="fill:#FFFFFF;" d="M1133.435,1554.865l21.998-21.752c-19.052-19.268-43.225-32.195-69.903-37.385
					c-0.122-0.024-0.245-0.048-0.367-0.071l-5.79,30.387c-10.429-2.003-20.795-2.367-30.83-1.269l-3.364-30.748
					c-26.917,2.944-52.074,13.836-72.751,31.497l20.092,23.524c-7.804,6.666-14.648,14.505-20.228,23.319l-26.137-16.547
					c-8.961,14.154-15.136,29.725-18.354,46.282c-1.938,9.971-2.751,20.139-2.417,30.218l30.916-1.025
					c0.348,10.491,2.296,20.703,5.643,30.347l-29.225,10.143c8.896,25.632,25.087,47.737,46.824,63.925l18.476-24.808
					c8.159,6.077,17.305,11.007,27.243,14.512l-10.291,29.174c6.226,2.196,12.689,3.953,19.209,5.22
					c20.11,3.908,40.292,3.25,59.983-1.956l-7.907-29.905c10.056-2.659,19.599-6.815,28.331-12.255l16.357,26.26
					c23.095-14.386,41.072-35.092,51.987-59.88l-28.312-12.467c3.055-6.939,5.395-14.32,6.903-22.076
					c0.501-2.575,0.899-5.146,1.202-7.709l30.719,3.632c3.187-26.955-1.789-53.928-14.389-78.003l-27.41,14.346
					C1146.852,1570.64,1140.715,1562.228,1133.435,1554.865z M1050.242,1677.163c-27.281-5.302-45.099-31.717-39.796-58.998
					c5.302-27.281,31.717-45.099,58.998-39.797c27.281,5.303,45.099,31.717,39.796,58.998
					C1103.938,1664.648,1077.523,1682.465,1050.242,1677.163z"/>
				<path d="M1060.015,1764.818c-8.755,0-17.54-0.852-26.313-2.557c-6.64-1.291-13.222-3.079-19.564-5.316l-2.358-0.832
					l10.301-29.202c-8.357-3.171-16.254-7.378-23.534-12.536l-18.493,24.832l-2.005-1.493
					c-22.139-16.488-38.631-39.002-47.692-65.11l-0.82-2.362l29.253-10.153c-2.732-8.514-4.368-17.31-4.875-26.215l-30.946,1.026
					l-0.083-2.499c-0.34-10.268,0.488-20.624,2.461-30.778c3.278-16.865,9.568-32.726,18.696-47.142l1.337-2.112l26.162,16.563
					c4.944-7.415,10.807-14.173,17.473-20.141l-20.111-23.546l1.901-1.624c21.06-17.989,46.685-29.082,74.102-32.082l2.485-0.271
					l3.367,30.777c8.853-0.756,17.786-0.387,26.621,1.098l5.794-30.404l2.806,0.527c27.203,5.292,51.825,18.46,71.231,38.087
					l1.758,1.778l-22.019,21.772c6.123,6.489,11.399,13.713,15.724,21.528l27.436-14.36l1.159,2.215
					c12.834,24.522,17.903,51.998,14.657,79.455l-0.293,2.483l-30.748-3.635c-0.258,1.817-0.562,3.629-0.908,5.413
					c-1.353,6.961-3.398,13.781-6.089,20.307l28.339,12.479l-1.007,2.288c-11.119,25.25-29.43,46.342-52.954,60.995l-2.122,1.322
					l-16.373-26.285c-7.706,4.555-15.915,8.106-24.467,10.585l7.916,29.933l-2.417,0.639
					C1083.333,1763.3,1071.702,1764.818,1060.015,1764.818z M1018.167,1753.039c5.376,1.781,10.911,3.23,16.489,4.314
					c18.913,3.676,37.889,3.237,56.444-1.303l-7.902-29.882l2.417-0.639c9.739-2.575,19.042-6.599,27.648-11.959l2.122-1.322
					l16.345,26.24c20.951-13.596,37.435-32.581,47.882-55.146l-28.29-12.458l1.007-2.288c3.028-6.877,5.295-14.126,6.737-21.546
					c0.48-2.473,0.875-5.004,1.173-7.525l0.293-2.483l30.696,3.629c2.461-24.795-2.102-49.527-13.253-71.838l-27.39,14.335
					l-1.159-2.215c-4.69-8.962-10.67-17.148-17.772-24.331l-1.758-1.778l21.981-21.735c-17.904-17.441-40.198-29.324-64.734-34.503
					l-5.786,30.365l-2.459-0.472c-9.972-1.915-20.094-2.332-30.086-1.239l-2.485,0.271l-3.361-30.725
					c-24.657,3.167-47.722,13.154-67,29.012l20.078,23.506l-1.901,1.624c-7.705,6.581-14.346,14.237-19.74,22.756l-1.337,2.112
					l-26.117-16.535c-8.083,13.317-13.696,27.87-16.695,43.297c-1.742,8.963-2.558,18.087-2.431,27.159l30.892-1.025l0.083,2.499
					c0.335,10.086,2.188,20.048,5.506,29.61l0.82,2.362l-29.203,10.136c8.603,23.375,23.449,43.643,43.122,58.873l18.462-24.789
					l2.005,1.493c8.097,6.029,17.04,10.793,26.582,14.16l2.358,0.832L1018.167,1753.039z M1059.954,1680.603
					c-3.384,0-6.793-0.326-10.188-0.986c-13.85-2.692-25.823-10.616-33.712-22.313c-7.89-11.697-10.753-25.766-8.061-39.616
					c2.692-13.85,10.616-25.823,22.313-33.712s25.764-10.753,39.616-8.061c28.59,5.557,47.33,33.339,41.773,61.93
					c-2.692,13.85-10.616,25.823-22.313,33.712C1080.552,1677.512,1070.372,1680.603,1059.954,1680.603z M1059.744,1579.93
					c-9.433,0-18.649,2.798-26.643,8.19c-10.589,7.143-17.764,17.982-20.201,30.521c-5.031,25.885,11.935,51.036,37.819,56.067l0,0
					c12.539,2.438,25.276-0.155,35.866-7.297c10.589-7.143,17.764-17.982,20.201-30.521c5.031-25.884-11.935-51.036-37.819-56.067
					C1065.894,1580.225,1062.806,1579.93,1059.744,1579.93z"/>
			</g>
			<g>
				<path d="M1121.424,1663.307c-19.795,33.838-63.428,45.263-97.266,25.469c-33.838-19.794-45.263-63.428-25.469-97.266
					c19.794-33.838,63.428-45.263,97.266-25.469C1129.793,1585.836,1141.218,1629.469,1121.424,1663.307z M1000.909,1592.809
					c-19.079,32.614-8.067,74.669,24.547,93.747c32.614,19.079,74.669,8.067,93.747-24.547
					c19.079-32.614,8.067-74.669-24.547-93.747C1062.042,1549.183,1019.988,1560.194,1000.909,1592.809z"/>
			</g>
		</g>
		<g>
			<path style="fill:#ff8e3c;" d="M1682.143,1558.223c14.644-29.479,23.78-61.158,27.155-94.156l0.043-0.425l-41.116-4.134
				c2.151-21.358,1.344-42.332-2.085-62.519l40.743-6.921c-5.526-32.531-16.796-63.526-33.496-92.121l-35.683,20.839
				c-10.566-18.092-23.524-34.689-38.484-49.326l28.9-29.539c-23.672-23.159-50.983-41.639-81.175-54.927l-16.646,37.822
				c-18.779-8.265-38.934-14.149-60.127-17.242l5.97-40.892c-3.926-0.573-7.926-1.069-11.887-1.474
				c-28.894-2.954-57.823-1.363-85.983,4.729l8.738,40.389c-20.677,4.473-40.428,11.719-58.798,21.361l-19.206-36.591
				c-29.219,15.337-55.2,35.586-77.222,60.184l30.788,27.563c-13.86,15.481-25.709,32.873-35.093,51.798l-37.025-18.357
				c-14.589,29.426-23.694,61.04-27.06,93.967l-0.018,0.178l41.109,4.203c-2.168,21.357-1.376,42.332,2.038,62.521l-40.748,6.89
				c5.501,32.536,16.747,63.538,33.425,92.147l35.699-20.812c10.552,18.101,23.497,34.708,38.446,49.355l-28.922,29.518
				c23.654,23.176,50.951,41.678,81.131,54.989l16.675-37.808c18.773,8.28,38.925,14.178,60.114,17.287l-5.999,40.889
				c3.995,0.586,8.064,1.092,12.094,1.504c28.822,2.947,57.682,1.371,85.776-4.684l-8.706-40.395
				c20.681-4.457,40.437-11.688,58.815-21.316l19.177,36.604c29.23-15.314,55.227-35.543,77.268-60.125l-30.766-27.586
				c13.872-15.471,25.734-32.854,35.132-51.771L1682.143,1558.223z M1424.829,1548.791c-62.206-6.36-107.478-61.945-101.117-124.151
				c6.36-62.206,61.944-107.478,124.15-101.117s107.478,61.945,101.117,124.151S1487.035,1555.152,1424.829,1548.791z"/>
			<g>
				<path d="M1418.758,1608.167c-45.946-4.698-87.312-27.006-116.478-62.817c-29.167-35.81-42.642-80.835-37.944-126.78
					c4.698-45.945,27.007-87.311,62.817-116.478c35.81-29.167,80.835-42.642,126.781-37.944
					c45.945,4.698,87.311,27.007,116.478,62.817c29.167,35.81,42.642,80.835,37.944,126.781
					c-4.698,45.945-27.007,87.311-62.817,116.478C1509.728,1599.39,1464.703,1612.865,1418.758,1608.167z M1453.686,1266.562
					c-45.3-4.632-89.694,8.654-125.001,37.412c-35.308,28.757-57.303,69.542-61.935,114.843
					c-4.632,45.3,8.654,89.693,37.412,125.001c28.757,35.307,69.542,57.303,114.843,61.935
					c45.301,4.632,89.694-8.654,125.001-37.412c35.308-28.757,57.303-69.542,61.935-114.843
					c4.632-45.301-8.654-89.694-37.412-125.001C1539.772,1293.19,1498.987,1271.194,1453.686,1266.562z"/>
			</g>
		</g>
	</g>
	<g>
		<g>
			<g>
				<g>
					<g>
						<g>
							<g>
								<g>
									<g>
										<path d="M2805.368,3864.362H1845.07c-67.59,0-116.452-55.301-108.581-122.891l252.366-2167.291
											c7.87-67.59,69.611-122.891,137.201-122.891h960.298c67.59,0,116.452,55.301,108.581,122.891l-252.366,2167.291
											C2934.698,3809.061,2872.958,3864.362,2805.368,3864.362z"/>
										<path style="fill:#FFFFFF;" d="M3140.483,1792.076l-19.852-0.407c-1.638-0.034-2.697-2.329-2.351-5.101l9.8-78.6
											c0.345-2.772,1.969-5.013,3.607-4.979l19.852,0.407c1.639,0.034,2.696,2.329,2.351,5.101l-9.8,78.6
											C3143.745,1789.869,3142.122,1792.11,3140.483,1792.076z"/>
										<path style="fill:#FFFFFF;" d="M3126.823,1900.769l-19.852-0.407c-1.639-0.034-2.696-2.329-2.351-5.101l9.8-78.6
											c0.346-2.772,1.969-5.013,3.608-4.979l19.852,0.407c1.638,0.034,2.696,2.329,2.351,5.102l-9.8,78.6
											C3130.084,1898.562,3128.461,1900.802,3126.823,1900.769z"/>
										<g>
											<path style="fill:#FFFFFF;" d="M2714.155,3864.362h-960.298c-67.59,0-116.452-55.301-108.581-122.891l252.366-2167.291
												c7.87-67.59,69.611-122.891,137.201-122.891h960.298c67.59,0,116.451,55.301,108.581,122.891l-252.366,2167.291
												C2843.486,3809.061,2781.745,3864.362,2714.155,3864.362z"/>
											<path d="M2714.155,3866.168h-960.297c-33.055,0-62.772-12.93-83.675-36.408c-21.103-23.703-30.586-55.132-26.7-88.498
												l252.366-2167.291c7.993-68.643,70.346-124.488,138.995-124.488h960.298c33.055,0,62.771,12.93,83.675,36.408
												c21.103,23.703,30.586,55.132,26.7,88.498L2853.15,3741.68C2845.157,3810.322,2782.804,3866.168,2714.155,3866.168z
												 M2034.843,1453.096c-32.244,0-64.132,12.657-89.79,35.639c-25.661,22.984-41.861,53.404-45.616,85.655L1647.07,3741.68
												c-3.764,32.328,5.402,62.755,25.811,85.677c20.208,22.698,48.966,35.198,80.977,35.198h960.297
												c32.244,0,64.133-12.657,89.79-35.638c25.661-22.984,41.862-53.405,45.617-85.655l252.366-2167.291
												c3.764-32.327-5.402-62.755-25.81-85.677c-20.209-22.698-48.966-35.198-80.977-35.198H2034.843z"/>
										</g>
										<g>
											<path style="fill:#FFFFFF;" d="M2762.439,3609.578h-997.531c-29.084,0-50.109-23.796-46.722-52.879l225.886-1939.882
												c3.387-29.084,29.953-52.879,59.037-52.879h997.531c29.084,0,50.108,23.796,46.722,52.879l-225.886,1939.882
												C2818.09,3585.782,2791.523,3609.578,2762.439,3609.578z"/>
											<path d="M2762.439,3611.384h-997.53c-14.521,0-27.581-5.686-36.773-16.011c-9.278-10.422-13.449-24.231-11.743-38.883
												l225.886-1939.882c3.498-30.039,30.786-54.477,60.831-54.477h997.53c14.521,0,27.581,5.686,36.774,16.011
												c9.278,10.422,13.449,24.231,11.742,38.884L2823.27,3556.907C2819.772,3586.946,2792.484,3611.384,2762.439,3611.384z
												 M2003.11,1565.743c-28.271,0-53.95,23.005-57.243,51.282L1719.98,3556.907c-1.585,13.615,2.269,26.422,10.853,36.063
												c8.498,9.544,20.599,14.801,34.075,14.801h997.53c28.272,0,53.95-23.004,57.244-51.281l225.886-1939.882
												c1.585-13.615-2.269-26.422-10.853-36.064c-8.497-9.544-20.6-14.8-34.076-14.8H2003.11z"/>
										</g>
										<g>
											<path d="M2618.38,1533.36h-223.97c-7.353,0-12.668-6.016-11.812-13.368v0c0.856-7.352,7.573-13.368,14.925-13.368h223.97
												c7.353,0,12.668,6.016,11.812,13.368v0C2632.449,1527.344,2625.733,1533.36,2618.38,1533.36z"/>
											<path style="fill:#7979C6;" d="M2618.317,1533.906h-223.97c-7.672,0-13.187-6.242-12.293-13.914
												c0.894-7.672,7.862-13.914,15.534-13.914h223.97c7.672,0,13.187,6.242,12.293,13.914
												C2632.957,1527.664,2625.988,1533.906,2618.317,1533.906z M2397.46,1507.169c-7.07,0-13.492,5.752-14.315,12.823
												c-0.823,7.071,4.259,12.823,11.329,12.823h223.97c7.07,0,13.492-5.752,14.315-12.823
												c0.823-7.071-4.259-12.823-11.329-12.823H2397.46z"/>
										</g>
										<g>
											<path d="M2368.155,3742.943h-223.97c-7.353,0-12.668-6.016-11.812-13.368v0c0.856-7.352,7.573-13.368,14.925-13.368
												h223.97c7.353,0,12.668,6.016,11.812,13.368v0C2382.224,3736.928,2375.508,3742.943,2368.155,3742.943z"/>
										</g>
										<g>
											<polygon points="1997.695,1684.759 1970.696,1684.759 1975.723,1641.589 2002.722,1641.589 											"/>
											<polygon points="2040.123,1684.759 2013.124,1684.759 2020.636,1620.245 2047.635,1620.245 											"/>
											<polygon points="2082.55,1684.759 2055.551,1684.759 2067.037,1586.115 2094.036,1586.115 											"/>
											<g>
												<polygon points="2858.052,1684.759 2832.123,1684.759 2837.866,1635.437 2863.795,1635.437 												"/>
												<polygon points="2889.166,1684.759 2863.238,1684.759 2868.981,1635.437 2894.909,1635.437 												"/>
												<polygon points="2920.281,1684.759 2894.352,1684.759 2900.095,1635.437 2926.024,1635.437 												"/>
												<polygon points="2951.395,1684.759 2925.466,1684.759 2931.209,1635.437 2957.138,1635.437 												"/>
												<polygon points="2982.51,1684.759 2956.581,1684.759 2962.324,1635.437 2988.252,1635.437 												"/>
											</g>
										</g>
										<g style="opacity:0.5;">
											<path style="fill:#7979C6;" d="M2770.859,3572.797H1765.847c-17.46,0-29.967-14.155-27.933-31.615l208.324-1789.06
												c2.033-17.46,17.836-31.615,35.296-31.615h1005.012c17.46,0,29.967,14.155,27.934,31.615l-208.324,1789.06
												C2804.122,3558.642,2788.319,3572.797,2770.859,3572.797z"/>
										</g>
										<g>
											<polygon points="2259.718,2490.239 2032.465,2490.239 2039.187,2442.15 2266.44,2442.15 											"/>
											<polygon points="2849.328,2490.239 2622.075,2490.239 2628.797,2442.15 2856.05,2442.15 											"/>
											<polygon points="2610.238,2490.239 2271.555,2490.239 2278.277,2442.15 2616.96,2442.15 											"/>
										</g>
										<g>
											<polygon points="2212.366,2820.842 1985.113,2820.842 1991.835,2772.752 2219.088,2772.752 											"/>
											<polygon points="2801.976,2820.842 2574.723,2820.842 2581.445,2772.752 2808.698,2772.752 											"/>
											<polygon points="2562.886,2820.842 2224.203,2820.842 2230.925,2772.752 2569.608,2772.752 											"/>
										</g>
										<g>
											<polygon points="2554.523,3031.576 2327.27,3031.576 2333.992,2983.487 2561.245,2983.487 											"/>
											<polygon points="2781.267,2959.666 2554.013,2959.666 2560.735,2911.576 2787.989,2911.576 											"/>
											<polygon points="2542.176,2959.666 2203.494,2959.666 2210.216,2911.576 2548.898,2911.576 											"/>
										</g>
										<g>
											<polygon points="2607.945,2686.132 2380.692,2686.132 2387.414,2638.043 2614.667,2638.043 											"/>
										</g>
										<g>
											<polygon points="2659.668,2620.835 2320.986,2620.835 2327.708,2572.745 2666.39,2572.745 											"/>
										</g>
										<g>
											<polygon points="2338.067,2555.537 2023.338,2555.537 2030.059,2507.447 2344.789,2507.447 											"/>
											<polygon points="2577.444,2555.537 2348.992,2555.537 2355.714,2507.447 2584.166,2507.447 											"/>
										</g>
										<g>
											<polygon points="2159.66,3152.015 1932.406,3152.015 1939.128,3103.925 2166.382,3103.925 											"/>
											<polygon points="2749.27,3152.015 2522.016,3152.015 2528.738,3103.925 2755.992,3103.925 											"/>
											<polygon points="2510.179,3152.015 2171.497,3152.015 2178.219,3103.925 2516.901,3103.925 											"/>
										</g>
										<g>
											<polygon points="2559.61,3282.61 2220.927,3282.61 2227.649,3234.521 2566.332,3234.521 											"/>
										</g>
										<g>
											<polygon points="2238.009,3217.313 1923.279,3217.313 1930.001,3169.223 2244.731,3169.223 											"/>
											<polygon points="2477.385,3217.313 2248.934,3217.313 2255.656,3169.223 2484.107,3169.223 											"/>
										</g>
										<g>
											<polygon points="2310.686,2751.43 1995.956,2751.43 2002.678,2703.34 2317.408,2703.34 											"/>
											<polygon points="2550.062,2751.43 2321.61,2751.43 2328.332,2703.34 2556.784,2703.34 											"/>
										</g>
										<g>
											<polygon points="2289.36,2890.254 1974.63,2890.254 1981.352,2842.165 2296.082,2842.165 											"/>
											<polygon points="2528.737,2890.254 2300.285,2890.254 2307.007,2842.165 2535.458,2842.165 											"/>
										</g>
										<g>
											<path d="M1965.124,2528.001c0.766-5.828-0.845-10.282-4.827-13.365c-3.984-3.081-10.162-4.623-18.536-4.623l3.154-24.017
												c8.441,0,15.031-1.473,19.774-4.421c4.741-2.947,7.473-7.167,8.194-12.661l0.106-0.804l4.197-31.955
												c1.346-10.25,5.542-17.467,12.591-21.655c7.047-4.186,18.744-6.281,35.091-6.281l-2.969,22.61
												c-6.659,0.201-11.398,1.475-14.218,3.819c-2.82,2.346-4.529,5.795-5.128,10.35l-3.946,30.046
												c-2.056,12.595-10.871,20.031-26.444,22.308l-0.158,1.206c15.368,2.346,22.274,9.446,20.716,21.303l-0.119,0.905
												l-3.946,30.046c-0.598,4.555,0.188,8.005,2.359,10.35c2.17,2.344,6.592,3.617,13.265,3.818l-2.983,22.71
												c-16.347,0-27.494-2.094-33.441-6.28c-5.949-4.188-8.245-11.44-6.89-21.756L1965.124,2528.001z"/>
										</g>
										<g>
											<path d="M2785.702,2717.521c-0.994,8.299-3.265,14.563-6.809,18.787c-3.546,4.224-8.936,7.318-16.175,9.282
												c-7.239,1.963-17.047,2.946-29.422,2.946l3.01-25.123c7.354-0.149,12.573-1.483,15.653-4.002
												c3.081-2.521,4.937-6.411,5.567-11.672l3.982-33.238l0.146-1.223c0.763-6.373,3.568-11.542,8.417-15.508
												c4.847-3.964,11.607-6.576,20.281-7.837l0.16-1.334c-16.522-2.519-24.169-10.745-22.945-24.678l3.982-33.238
												c0.621-5.187-0.289-9.041-2.728-11.561c-2.441-2.519-7.354-3.891-14.737-4.113l2.997-25.012
												c12.375,0,21.966,0.983,28.772,2.946c6.804,1.965,11.453,5.077,13.944,9.338c2.491,4.262,3.248,10.469,2.271,18.62
												l-4.236,35.35l-0.133,1.112c-0.746,6.225,0.974,10.894,5.158,14.007c4.185,3.113,11.205,4.669,21.062,4.669
												l-3.183,26.568c-9.265,0-16.506,1.52-21.723,4.558c-5.219,3.04-8.258,8.153-9.119,15.341L2785.702,2717.521z"/>
										</g>
									</g>
								</g>
							</g>
						</g>
					</g>
				</g>
			</g>
		</g>
	</g>
	<g>
		<g>
			<g>
				<g>
					<path style="fill:#FFFFFF;" d="M3055.262,1376.651c-19.519-58.519-67.76-76.371-67.76-76.371s-39.619-102.276-54.617-99.811
						c-13.183,2.167,6,68.619,13.455,99.834c-9.132-30.572-35.587-94.664-49.292-89.498c-20.427,7.7,10.553,113.052,10.553,113.052
						s-30.953-90.354-49.811-81.729c-15.612,7.141-4.668,34.865,15.799,88.609c-22.032-14.94-56.894-35.464-63.372-20.729
						c-7.979,18.151,64.66,75.386,89.522,94.273c33.552,101.578,77.184,240.498,157.945,224.866
						C3090.846,1622.729,3069.372,1418.955,3055.262,1376.651z"/>
					<path d="M3045.167,1632.878c-30.862,0.002-58.598-22.26-84.448-67.626c-24.984-43.845-44.035-101.615-60.844-152.585
						l-2.265-6.865c-12.846-9.775-36.702-28.466-56.652-47.106c-16.698-15.601-38.289-37.726-33.028-49.694
						c1.316-2.993,3.709-5.064,6.919-5.988c9.607-2.766,27.632,4.403,53.629,21.323c-19.397-50.948-28.708-76.713-11.727-84.481
						c2.446-1.119,5.098-1.081,7.875,0.112c8.383,3.603,18.584,18.777,30.319,45.101c0.154,0.347,0.309,0.694,0.462,1.041
						c-1.113-4.997-2.204-10.199-3.197-15.424c-3.043-16.002-4.601-29.11-4.63-38.96c-0.039-13.458,2.77-21.067,8.587-23.26
						c2.037-0.767,4.245-0.572,6.564,0.578c9.236,4.576,20.919,26.229,30.559,48.678c-6.455-27.799-9.95-49.467-5.161-56.771
						c1.073-1.637,2.578-2.657,4.352-2.948c5.22-0.867,14.012,4.087,35.604,50.391c10.365,22.227,19.384,44.951,21.353,49.967
						c3.315,1.379,13.856,6.191,26.203,16.221c13.487,10.955,31.721,30.479,41.993,61.279
						c6.766,20.281,14.535,73.693,18.074,124.241c2.569,36.696,4.954,101.552-7.943,123.624c-2.631,4.503-5.862,7.153-9.603,7.877
						C3053.769,1632.452,3049.436,1632.878,3045.167,1632.878z M2819.379,1307.425c-1.182,0-2.232,0.13-3.146,0.394
						c-1.813,0.522-2.996,1.538-3.725,3.196c-4.777,10.866,30.058,46.694,88.746,91.276l0.618,0.47l2.752,8.34
						c16.734,50.748,35.702,108.266,60.438,151.676c24.878,43.658,51.242,65.079,80.263,65.082c3.914,0,7.872-0.389,11.886-1.166
						c2.265-0.438,4.363-2.286,6.236-5.491c20.571-35.205,2.617-204.263-10.557-243.76l0,0
						c-18.884-56.617-65.786-74.643-66.258-74.818l-1.053-0.392l-0.408-1.048c-0.099-0.255-10.018-25.799-21.628-50.696
						c-22.109-47.407-29.476-47.673-30.253-47.551c-0.269,0.044-0.596,0.168-0.98,0.756c-5.569,8.494,5.728,53.252,12.478,79.994
						c1.475,5.843,2.867,11.361,3.984,16.037l-4.827,1.296c-9.431-31.573-31.039-81.354-43.434-87.495
						c-1.549-0.768-2.325-0.476-2.581-0.379c-3.247,1.224-9.826,9.19-0.809,56.607c5.109,26.87,12.802,53.139,12.879,53.401
						l-4.764,1.515c-6.907-20.159-28.022-73.848-42.586-80.106c-1.466-0.63-2.679-0.682-3.82-0.159
						c-13.163,6.021-2.856,33.074,15.854,82.187l4.063,10.667l-6.561-4.448C2848.051,1316.44,2829.207,1307.425,2819.379,1307.425z"
						/>
				</g>
				<g>
					<g>
						<polygon style="fill:#FFFFFF;" points="3216.701,1326.846 2036.393,1326.846 2106.866,834.279 3287.175,834.279 						"/>
						<path d="M3218.869,1329.346h-1185.36l71.189-497.567h1185.359L3218.869,1329.346z M2039.276,1324.346h1175.257l69.759-487.567
							H2109.034L2039.276,1324.346z"/>
					</g>
					<g>
						<polygon style="fill:#BFC2C4;" points="2420.725,1141.685 2193.471,1141.685 2200.193,1093.595 2427.446,1093.595 						"/>
						<polygon style="fill:#BFC2C4;" points="3010.334,1141.685 2783.081,1141.685 2789.803,1093.595 3017.056,1093.595 						"/>
						<polygon style="fill:#BFC2C4;" points="2771.244,1141.685 2432.562,1141.685 2439.283,1093.595 2777.966,1093.595 						"/>
					</g>
					<g>
						<polygon style="fill:#BFC2C4;" points="2469.074,1272.28 2175.217,1272.28 2181.938,1224.191 2475.796,1224.191 						"/>
						<polygon style="fill:#BFC2C4;" points="2820.675,1272.28 2481.992,1272.28 2488.714,1224.191 2827.396,1224.191 						"/>
					</g>
					<g>
						<polygon style="fill:#BFC2C4;" points="2499.074,1206.983 2184.344,1206.983 2191.066,1158.893 2505.796,1158.893 						"/>
						<polygon style="fill:#BFC2C4;" points="2887.581,1206.983 2748.974,1206.983 2755.696,1158.893 2894.302,1158.893 						"/>
						<polygon style="fill:#BFC2C4;" points="2738.45,1206.983 2509.998,1206.983 2516.72,1158.893 2745.172,1158.893 						"/>
					</g>
					<g>
						<path d="M2118.684,1212.984c0.765-5.828-0.845-10.283-4.827-13.365c-3.984-3.081-10.163-4.622-18.536-4.622l3.154-24.017
							c8.441,0,15.031-1.473,19.774-4.422c4.741-2.947,7.473-7.167,8.195-12.661l0.105-0.804l4.197-31.955
							c1.346-10.25,5.542-17.467,12.591-21.655c7.047-4.186,18.744-6.281,35.091-6.281l-2.969,22.61
							c-6.658,0.201-11.398,1.474-14.218,3.818c-2.82,2.346-4.529,5.795-5.127,10.35l-3.946,30.046
							c-2.056,12.595-10.871,20.031-26.444,22.308l-0.158,1.206c15.368,2.346,22.273,9.446,20.716,21.303l-0.119,0.904
							l-3.946,30.046c-0.598,4.555,0.188,8.005,2.359,10.35c2.17,2.344,6.592,3.617,13.265,3.818l-2.982,22.71
							c-16.347,0-27.494-2.094-33.442-6.281c-5.949-4.188-8.245-11.44-6.89-21.755L2118.684,1212.984z"/>
					</g>
					<g>
						<path d="M2238.972,1015.987l-108.716-52.039l3.024-16.99l128.467-58.93l-5.075,28.514l-87.97,37.663l75.324,33.386
							L2238.972,1015.987z"/>
						<path d="M2375.377,866.406l-95.668,173.7h-32.91l95.669-173.7H2375.377z"/>
						<path d="M2365.45,987.592l87.208-33.386l-74.563-37.663l5.075-28.514l107.489,58.93l-3.024,16.99l-127.241,52.039
							L2365.45,987.592z"/>
					</g>
				</g>
				<g>
					<path style="fill:#FFFFFF;" d="M3063.732,1431.457c0,0,40.118-54.046-32.657-165.039
						c-47.592-72.583-73.991-56.898-36.885,6.944c11.239,19.336,6.005,45.535,1.432,54.394c-13.216,25.601-12.748,74.34,6.72,91.521
						C3021.808,1436.459,3063.732,1431.457,3063.732,1431.457z"/>
					<path d="M3049.962,1434.637c-2.983,0-6.297-0.089-9.799-0.333c-17.699-1.23-30.981-5.655-39.477-13.152
						c-20.393-17.997-21.062-67.859-7.287-94.542c4.584-8.879,9.058-34.047-1.371-51.991
						c-17.372-29.888-22.525-51.938-13.448-57.546c10.155-6.275,31.069,12.111,54.585,47.976
						c20.948,31.949,45.592,79.673,44.027,125.597c-0.948,27.845-11.025,41.725-11.453,42.302l-0.643,0.865l-1.069,0.127
						C3063.708,1433.978,3058.055,1434.637,3049.962,1434.637z M2983.146,1220.846c-0.784,0-1.431,0.167-1.938,0.479
						c-1.825,1.128-3.018,5.522-0.889,14.475c2.296,9.657,7.84,22.211,16.031,36.306c11.531,19.84,6.662,46.782,1.492,56.797
						c-12.864,24.919-12.191,72.311,6.152,88.5c16.66,14.703,51.567,12.304,58.306,11.686c2.103-3.38,9.23-16.438,9.909-39.082
						c1.336-44.49-22.77-91.019-43.227-122.218C3005.903,1232.588,2989.726,1220.846,2983.146,1220.846z"/>
				</g>
				<g>
					<g>
						<g>
							<path style="fill:#FFFFFF;" d="M3573.933,1944.202c0,0-324.179,51.73-440.099,19.233
								c-36.377-10.198-85.812-37.74-108.057-101.482c-52.359-150.036-127.169-380.482-127.169-380.482
								c-9.563-50.622,100.081-99.296,174.249-88.943c39.783,96.726,74.831,237.869,123.047,349.322
								c11.304,26.13,221.649-61.41,312.44-111.49"/>
							<path d="M3245.255,1976.725c-48.734,0-86.219-3.628-112.096-10.882c-30.54-8.562-85.408-33.336-109.742-103.066
								c-51.77-148.346-126.438-378.229-127.187-380.534l-0.078-0.308c-2.572-13.613,2.874-27.95,15.751-41.46
								c15.554-16.319,41.857-31.19,72.167-40.8c31.16-9.879,62.815-13.295,89.133-9.623l1.421,0.198l0.546,1.327
								c18.168,44.172,35.186,97.078,53.203,153.09c21.451,66.685,43.632,135.641,69.826,196.189
								c0.419,0.97,1.453,1.743,3.071,2.295c14.142,4.831,62.56-8.184,132.842-35.704c60.416-23.659,129.95-55.518,173.025-79.278
								l2.415,4.378c-43.247,23.855-113.019,55.826-173.618,79.555c-37.132,14.541-98.989,36.97-127.163,36.973
								c-3.647,0-6.726-0.375-9.117-1.192c-3.008-1.028-5.042-2.724-6.045-5.042c-26.29-60.771-48.509-129.845-69.996-196.644
								c-17.805-55.352-34.631-107.662-52.521-151.384c-51.796-6.637-124.116,16.109-155.57,49.11
								c-11.668,12.243-16.675,25.009-14.486,36.929c2.309,7.106,75.909,233.583,127.102,380.275
								c23.586,67.587,76.769,91.601,106.371,99.899c114.064,31.978,435.794-18.778,439.031-19.294l0.787,4.938
								c-0.811,0.129-82.219,13.047-176.742,21.823C3338.484,1973.981,3287.618,1976.725,3245.255,1976.725z"/>
						</g>
					</g>
				</g>
			</g>
		</g>
		<g>
			<g>
				<g>
					<g>
						<path d="M2901.137,3601.992c0,0-296.479,151.054-309.521,183.229c-13.042,32.175-8.501,44.868,6.042,44.467l530.819-14.647
							c8.63-0.238,15.258-7.92,14.178-16.435l-33.161-261.621c-1.173-9.252-10.769-14.795-19.518-11.275l-186.335,74.982
							C2902.768,3601.045,2901.929,3601.479,2901.137,3601.992z"/>
						<g>
							<polygon style="fill:#FFFFFF;" points="2584.309,3812.615 2581.952,3865.489 3144.279,3861.212 3142.656,3798.607 							"/>
							<path d="M2579.336,3868.009l2.58-57.834l563.175-14.13l1.754,67.647L2579.336,3868.009z M2586.703,3815.056l-2.137,47.914
								l557.147-4.238l-1.492-57.563L2586.703,3815.056z"/>
						</g>
						<g>
							<path style="fill:#FFFFFF;" d="M2669.58,3832.198l-0.748-8.969c52.214-4.359,100.251-16.151,142.778-35.05
								c33.958-15.091,64.504-34.722,90.789-58.35c44.636-40.123,61.582-78.143,61.748-78.521l8.246,3.607
								c-0.71,1.622-17.907,40.194-63.978,81.607c-26.988,24.26-58.329,44.406-93.151,59.881
								C2771.815,3815.712,2722.8,3827.755,2669.58,3832.198z"/>
						</g>
						<g>
							<line style="fill:#FFFFFF;" x1="2679.351" y1="3810.231" x2="2679.411" y2="3865.489"/>
							<rect x="2676.881" y="3810.231" transform="matrix(1 -0.0011 0.0011 1 -4.1309 2.8873)" width="5" height="55.258"/>
						</g>
						<g>
							<line style="fill:#FFFFFF;" x1="2795.029" y1="3807.419" x2="2795.105" y2="3865.489"/>
							<rect x="2792.567" y="3807.419" transform="matrix(1 -0.0013 0.0013 1 -5.0978 3.7192)" width="5" height="58.07"/>
						</g>
						<g>
							<line style="fill:#FFFFFF;" x1="2910.712" y1="3803.877" x2="2910.793" y2="3862.821"/>
							<rect x="2908.252" y="3803.877" transform="matrix(1 -0.0014 0.0014 1 -5.2715 4.0085)" width="5" height="58.944"/>
						</g>
						<g>
							<line style="fill:#FFFFFF;" x1="3026.412" y1="3801.523" x2="3026.465" y2="3862.108"/>
							<rect x="3023.938" y="3801.523" width="5" height="60.585"/>
						</g>
					</g>
					<g>
						<g>
							<g>
								<path style="fill:#FFFFFF;" d="M3145.302,3776.235l398.678-1470.26c43.87-142.906-154.785-24.951-301.008-52.524
									l-466.4,1406.392C2836.491,3712.276,3072.867,3804.062,3145.302,3776.235z"/>
								<path d="M3110.452,3783.886c-13.034,0-28.161-1.419-45.305-4.258c-31.597-5.232-69.537-15.304-109.717-29.128
									c-76.701-26.388-150.927-62.894-180.505-88.774l-1.249-1.094l0.522-1.575l467.089-1408.467l2.147,0.405
									c55.627,10.49,118.417-0.166,173.817-9.569c60.153-10.209,107.67-18.273,126.884,3.611
									c10.553,12.019,11.283,32.192,2.233,61.671l-398.987,1471.406l-1.185,0.455
									C3136.974,3782.112,3125.02,3783.886,3110.452,3783.886z M2779.472,3659.042c29.955,25.434,102.5,60.898,177.585,86.73
									c86.294,29.688,153.974,40.056,186.169,28.566l398.342-1469.019c8.521-27.764,8.126-46.377-1.188-56.985
									c-17.372-19.786-65.993-11.534-122.29-1.98c-55.104,9.352-117.469,19.938-173.429,9.948L2779.472,3659.042z"/>
							</g>
						</g>
					</g>
				</g>
			</g>
			<path style="opacity:0.5;fill:#7979C6;" d="M3095.542,3048.308c72.816-313.005,317.512-1102.741,443.493-1171.45
				c101.788-55.514-164.508,1219.658-274.981,1461.439C3237.797,3395.762,3058.316,3208.325,3095.542,3048.308z"/>
		</g>
		<g>
			<g>
				<g>
					<g>
						<path d="M3802.522,3385.756c0,0,56.829,316.727,82.484,338.147s38.395,20.97,41.964,7.489l130.258-492.052
							c2.118-8-3.057-16.342-11.072-17.848l-246.249-46.255c-8.708-1.636-16.331,5.556-15.504,14.628l17.618,193.209
							C3802.104,3383.98,3802.271,3384.878,3802.522,3385.756z"/>
						<g>
							<polygon style="fill:#FFFFFF;" points="3907.875,3738.651 3955.192,3756.324 4103.375,3238.361 4046.156,3221.491 							"/>
							<path d="M3956.852,3759.612l-51.978-19.413l0.587-2.193l138.942-519.638l62.059,18.296l-0.683,2.384L3956.852,3759.612z
								 M3910.878,3737.104l42.655,15.933l146.757-512.979l-52.381-15.442L3910.878,3737.104z"/>
						</g>
						<g>
							<path style="fill:#FFFFFF;" d="M3802.52,3390.257c-1.96,0-3.763-1.29-4.326-3.269c-0.327-1.148-0.547-2.329-0.653-3.51
								c-0.225-2.475,1.601-4.663,4.076-4.887c2.466-0.226,4.663,1.601,4.887,4.076c0.057,0.622,0.173,1.246,0.347,1.855
								c0.681,2.391-0.705,4.88-3.096,5.561C3803.342,3390.201,3802.927,3390.257,3802.52,3390.257z"/>
						</g>
						<g>
							<path style="fill:#FFFFFF;" d="M3907.872,3743.152c-0.576,0-1.161-0.111-1.727-0.347c-0.386-0.161-9.615-4.066-23.929-15.371
								c-4.366-3.448-17.651-13.941-52.681-179.434c-17.163-81.085-31.305-160.665-31.445-161.46
								c-0.435-2.446,1.198-4.782,3.646-5.216c2.445-0.435,4.782,1.199,5.216,3.646c0.141,0.793,14.26,80.245,31.394,161.187
								c10.052,47.49,19.156,86.181,27.061,114.998c13.126,47.854,20.029,57.354,22.389,59.217
								c13.221,10.44,21.737,14.094,21.821,14.13c2.286,0.965,3.364,3.6,2.404,5.888
								C3911.298,3742.113,3909.63,3743.152,3907.872,3743.152z"/>
						</g>
						<g>
							<line style="fill:#FFFFFF;" x1="3921.719" y1="3664.916" x2="3974.674" y2="3680.702"/>
							
								<rect x="3945.697" y="3645.18" transform="matrix(0.2857 -0.9583 0.9583 0.2857 -699.4743 6407.208)" width="4.999" height="55.258"/>
						</g>
						<g>
							<line style="fill:#FFFFFF;" x1="3952.194" y1="3553.289" x2="4007.848" y2="3569.867"/>
							
								<rect x="3977.521" y="3532.543" transform="matrix(0.2855 -0.9584 0.9584 0.2855 -569.5247 6359.2617)" width="4.999" height="58.07"/>
						</g>
						<g>
							<line style="fill:#FFFFFF;" x1="3981.971" y1="3441.448" x2="4038.464" y2="3458.272"/>
							
								<rect x="4007.717" y="3420.387" transform="matrix(0.2854 -0.9584 0.9584 0.2854 -440.7497 6308.5767)" width="5.001" height="58.944"/>
						</g>
						<g>
							<line style="fill:#FFFFFF;" x1="4012.892" y1="3329.932" x2="4070.948" y2="3347.253"/>
							
								<rect x="4039.42" y="3308.3" transform="matrix(0.2859 -0.9583 0.9583 0.2859 -312.9107 6257.2847)" width="5" height="60.585"/>
						</g>
						<g>
							<path style="fill:#FFFFFF;" d="M3951.793,3593.35c-0.016,0-0.031,0-0.048,0c-2.485-0.026-4.479-2.062-4.453-4.547
								c0.608-58.463-15.284-105.084-45.959-134.822c-23.133-22.429-46.815-27.608-47.052-27.658
								c-2.429-0.51-3.99-2.892-3.484-5.321c0.506-2.429,2.878-3.996,5.31-3.491c1.054,0.217,26.09,5.592,51.079,29.61
								c14.597,14.029,26.149,31.553,34.337,52.083c10.154,25.461,15.123,55.639,14.77,89.693
								C3956.266,3591.365,3954.256,3593.35,3951.793,3593.35z"/>
						</g>
					</g>
					<g>
						<g>
							<g>
								<path style="fill:#FFFFFF;" d="M3983.646,3198.377c0,0-448.56-155.073-419.173-270.268
									c29.387-115.195,175.772-660.208,175.772-660.208c-32.932-145.816-152.889-115.409-315.007-141.868
									c0,0-218.51,665.635-261.866,899.078c-38.805,208.941,625.021,518.751,625.021,518.751
									C3866.443,3559.594,3986.001,3307.547,3983.646,3198.377z"/>
								<path d="M3795.56,3547.068c-2.606,0-5.159-0.251-7.661-0.756l-0.293-0.059l-0.271-0.126
									c-1.661-0.775-167.953-78.709-327.356-181.186c-93.7-60.236-166.746-117.058-217.111-168.887
									c-63.389-65.231-90.962-122.898-81.954-171.401c42.891-230.936,259.765-892.743,261.95-899.4l0.667-2.032l2.11,0.345
									c36.197,5.908,69.568,8.909,101.841,11.811c109.862,9.88,189.24,17.019,215.202,131.973l0.136,0.603l-0.16,0.597
									c-1.463,5.45-146.716,546.314-175.763,660.178c-14.765,57.874,99.093,127.355,197.207,175.451
									c107.089,52.496,219.238,91.448,220.358,91.836l1.646,0.568l0.037,1.74c0.913,42.278-16.208,107.763-45.798,175.171
									c-30.122,68.621-67.785,126.057-100.751,153.639C3823.756,3540.388,3808.98,3547.068,3795.56,3547.068z M3789.176,3541.469
									c13.763,2.639,29.64-3.468,47.212-18.17c32.402-27.112,69.554-83.865,99.381-151.814
									c28.909-65.856,45.807-129.687,45.404-171.324c-14.346-5.044-118.988-42.336-219.234-91.474
									c-63.145-30.952-112.246-60.495-145.941-87.808c-42.762-34.662-60.912-66.082-53.945-93.388
									c28.621-112.197,170.014-638.771,175.618-659.641c-11.661-51.078-35.037-83.326-73.529-101.456
									c-35.972-16.942-82.839-21.157-137.107-26.038c-30.254-2.721-64.47-5.798-100.084-11.514
									c-13.374,40.874-219.475,672.491-261.12,896.724c-8.693,46.813,18.428,102.995,80.61,166.989
									c50.093,51.553,122.835,108.129,216.204,168.155C3618.727,3461.058,3781.45,3537.841,3789.176,3541.469z"/>
							</g>
						</g>
					</g>
				</g>
			</g>
			<g>
				<path style="fill:#FFFFFF;" d="M3259.701,2985.045c0,0-10.544,67.48,44.284,126.525"/>
				<path d="M3302.153,3113.271c-28.739-30.949-39.428-64.218-43.334-86.678c-4.239-24.377-1.698-41.229-1.588-41.935l4.94,0.771
					c-0.026,0.166-2.528,16.898,1.609,40.512c3.809,21.737,14.193,53.944,42.036,83.928L3302.153,3113.271z"/>
			</g>
		</g>
		<g>
			<g>
				<g>
					<g>
						<g>
							<path style="fill:#FFFFFF;" d="M3684.492,2511.686c0,0,122.731-491.313,158.278-709.244s-159.159-234.596-258.393-202.67
								c-47.048,15.137-144.699,45.48-180.661,150.335c-144.828,422.289-243.555,721.964-243.555,721.964
								C3324.222,2577.621,3526.599,2631.325,3684.492,2511.686z"/>
							<path d="M3478.363,2582.35c-17.61,0-35.621-1.18-54.043-3.546c-84.089-10.798-175.902-46.979-265.513-104.63l-1.627-1.047
								l0.605-1.838c0.987-2.997,100.388-304.519,243.564-721.993c35.968-104.875,133.703-136.294,180.673-151.394l1.588-0.511
								c32.731-10.532,72.099-14.737,108.009-11.539c43.258,3.854,80.211,18.014,106.862,40.95
								c20.539,17.675,35.085,40.527,43.234,67.921c9.066,30.477,10.251,66.854,3.521,108.119
								c-35.157,215.541-157.093,704.533-158.32,709.447l-0.214,0.855l-0.702,0.531
								C3625.73,2559.347,3556.068,2582.35,3478.363,2582.35z M3163.142,2471.014c88.472,56.644,178.968,92.192,261.815,102.831
								c98.051,12.59,184.62-8.818,257.322-63.621c5.814-23.339,123.596-497.12,158.022-708.185
								c6.608-40.515,5.473-76.141-3.378-105.889c-7.871-26.46-21.902-48.517-41.702-65.556
								c-39.119-33.666-121.547-56.927-210.079-28.442l-1.589,0.511c-23.641,7.6-59.367,19.085-93.453,41.479
								c-40.601,26.675-68.869,62.6-84.02,106.776C3268.742,2151.368,3171.688,2445.115,3163.142,2471.014z"/>
						</g>
					</g>
				</g>
			</g>
		</g>
		<g>
			<g>
				<g>
					<g>
						<g>
							<g>
								<path style="fill:#FFFFFF;" d="M3695.809,1595.966l-46.969-100.394l-82.677,17.072l18.213,87.127l-34.106,71.242
									C3550.27,1671.014,3685.844,1614.759,3695.809,1595.966z"/>
								<path d="M3545.194,1675.827l36.563-76.372l-18.554-88.752l87.064-17.979l48.334,103.311l-0.584,1.101
									c-4.455,8.402-29.856,23.339-77.657,45.667c-34.785,16.248-68.792,30.38-69.132,30.521L3545.194,1675.827z
									 M3569.123,1514.586l17.874,85.502l-31.639,66.088c40.142-16.905,126.748-55.544,137.608-70.386l-45.555-97.371
									L3569.123,1514.586z"/>
							</g>
						</g>
					</g>
				</g>
			</g>
			<g>
				<path style="fill:#ff8e3c;" d="M3534.449,1377.564c19.505-31.845,32.02,7.909,74.547,0.24
					c32.667-5.89,60.894,8.385,69.326,54.448c8.802,48.087-56.24,109.183-69.866,95.41c-13.626-13.773-13.507-35.985,0.266-49.611
					c6.934-6.86-30.171-4.448-43.798-18.221C3551.298,1446.057,3511.346,1415.283,3534.449,1377.564z"/>
				<g>
					<path style="fill:#FFFFFF;" d="M3597.076,1419.304c20.125-0.88,38.115,13.96,46.846,36.008
						c7.594,0.422,13.957,9.083,14.435,20.008c0.409,9.353-3.624,17.438-9.516,20.252c-3.677,28.994-41.524,68.069-65.168,69.103
						c-27.358,1.196-31.768-43.333-33.321-78.866C3548.799,1450.275,3569.718,1420.5,3597.076,1419.304z"/>
					<path d="M3582.592,1567.199c-12.778,0.001-22.075-9.228-27.647-27.453c-4.871-15.931-6.318-36.15-7.091-53.828
						c-1.61-36.854,20.422-67.858,49.113-69.112l0,0c20.168-0.874,39.125,13.283,48.716,36.2
						c8.266,1.488,14.668,10.683,15.172,22.205c0.419,9.585-3.444,18.195-9.718,21.961c-4.669,29.421-42.43,68.911-67.355,70
						C3583.382,1567.19,3582.984,1567.199,3582.592,1567.199z M3597.186,1421.801L3597.186,1421.801
						c-25.938,1.134-45.826,29.798-44.336,63.898c0.714,16.349,2.142,37.1,6.876,52.585c5.063,16.558,12.854,24.363,23.837,23.893
						c22.97-1.004,59.356-39.78,62.797-66.92l0.172-1.354l1.231-0.588c5.12-2.445,8.45-9.801,8.096-17.887
						c-0.416-9.528-5.721-17.269-12.075-17.622l-1.597-0.089l-0.589-1.487C3632.998,1434.515,3615.544,1421.011,3597.186,1421.801z"
						/>
				</g>
				<path style="fill:#ff8e3c;" d="M3652.375,1455.981c0,0-58.32,22.937-98.421-40.701c0,0,69.591-33.445,83.3-5.856
					C3650.963,1437.014,3652.375,1455.981,3652.375,1455.981z"/>
				<path style="fill:#FFFFFF;" d="M3595.375,1526.007c0,0-19.619,4.85-26.419,0c0,0-1.88,11.856,10.985,12.395
					C3592.807,1538.941,3595.375,1526.007,3595.375,1526.007z"/>
			</g>
		</g>
		<g>
			<path style="fill:#FFFFFF;" d="M3679.138,1555.647l41.461,44.191l-147.125,147.124l-23.204-75.949
				C3613.283,1643.419,3662.533,1608.371,3679.138,1555.647z"/>
			<path d="M3572.3,1751.673l-25.07-82.057l2.038-0.893c72.521-31.759,113.03-67.929,127.485-113.828l1.284-4.076l46.042,49.074
				l-1.713,1.712L3572.3,1751.673z M3553.311,1672.407l21.339,69.845l142.469-142.47l-36.934-39.366
				C3664.372,1605.454,3623.89,1641.161,3553.311,1672.407z"/>
		</g>
		<g>
			<polygon style="fill:#FFFFFF;" points="3584.376,1599.772 3579.734,1577.561 3501.799,1733.49 3550.27,1671.014 			"/>
			<path d="M3503.774,1735.022l-4.212-2.65l81.147-162.356l6.287,30.073l-34.587,72.247l-0.164,0.212L3503.774,1735.022z
				 M3578.757,1585.106l-63.373,126.796l32.747-42.209l33.626-70.238L3578.757,1585.106z"/>
		</g>
		<g>
			<polyline style="fill:#FFFFFF;" points="3560.984,1706.079 3527.403,1828.339 3498.026,1823.489 			"/>
			<polygon points="3529.218,1831.173 3497.619,1825.956 3498.434,1821.022 3525.589,1825.506 3558.572,1705.417 3563.395,1706.741 
							"/>
		</g>
		<g>
			<path style="fill:#FFFFFF;" d="M3530.692,1727.292c0,3.423,2.775,6.198,6.198,6.198s6.198-2.775,6.198-6.198
				c0-3.423-2.775-6.198-6.198-6.198S3530.692,1723.869,3530.692,1727.292z"/>
			<path d="M3536.89,1735.99c-4.796,0-8.697-3.902-8.697-8.698s3.901-8.697,8.697-8.697s8.698,3.901,8.698,8.697
				S3541.686,1735.99,3536.89,1735.99z M3536.89,1723.595c-2.039,0-3.697,1.659-3.697,3.697c0,2.039,1.658,3.698,3.697,3.698
				s3.698-1.659,3.698-3.698C3540.588,1725.253,3538.929,1723.595,3536.89,1723.595z"/>
		</g>
		<g>
			<path style="fill:#FFFFFF;" d="M3519.967,1759.424c0,3.423,2.775,6.198,6.198,6.198s6.198-2.775,6.198-6.198
				c0-3.423-2.775-6.198-6.198-6.198S3519.967,1756.001,3519.967,1759.424z"/>
			<path d="M3526.164,1768.122c-4.796,0-8.697-3.902-8.697-8.698s3.901-8.698,8.697-8.698s8.698,3.902,8.698,8.698
				S3530.96,1768.122,3526.164,1768.122z M3526.164,1755.727c-2.039,0-3.697,1.659-3.697,3.698s1.658,3.698,3.697,3.698
				s3.698-1.659,3.698-3.698S3528.203,1755.727,3526.164,1755.727z"/>
		</g>
		<g>
			<path style="fill:#FFFFFF;" d="M3507.572,1798.718c0,3.423,2.775,6.198,6.198,6.198c3.423,0,6.198-2.775,6.198-6.198
				c0-3.423-2.775-6.198-6.198-6.198C3510.346,1792.52,3507.572,1795.295,3507.572,1798.718z"/>
			<path d="M3513.77,1807.416c-4.796,0-8.698-3.902-8.698-8.698s3.902-8.697,8.698-8.697s8.697,3.901,8.697,8.697
				S3518.565,1807.416,3513.77,1807.416z M3513.77,1795.021c-2.039,0-3.698,1.659-3.698,3.697c0,2.039,1.659,3.698,3.698,3.698
				s3.697-1.659,3.697-3.698C3517.467,1796.679,3515.809,1795.021,3513.77,1795.021z"/>
		</g>
		<g>
			<path style="opacity:0.5;fill:#7979C6;" d="M3398.581,2025.241c-151.048,25.985-313.999-10.178-290.853,97.218
				c50.122,232.562,539.989,78.619,601.146-119.51C3769.63,1806.125,3549.629,1999.256,3398.581,2025.241z"/>
			<g>
				<g>
					<polygon style="fill:#FFFFFF;" points="2593.587,1875.099 2770.16,1929.816 2713.84,1993.682 2606.722,1930.002 					"/>
					<path d="M2714.344,1996.89l-109.808-65.279l-14.402-60.199l184.457,57.16L2714.344,1996.89z M2608.907,1928.393l104.429,62.081
						l52.394-59.414l-168.689-52.274L2608.907,1928.393z"/>
				</g>
				<g>
					<g>
						<g>
							<polygon style="fill:#FFFFFF;" points="2550.739,2260.081 1370.431,2260.081 1454.705,1665.974 2635.014,1665.974 							"/>
							<path d="M2552.91,2262.581H1367.551l0.405-2.851l84.58-596.256h1185.358L2552.91,2262.581z M1373.31,2257.581h1175.258
								l83.565-589.107H1456.876L1373.31,2257.581z"/>
						</g>
						<g>
							<polygon style="fill:#BFC2C4;" points="1775.431,1818.539 1548.177,1818.539 1554.899,1770.449 1782.152,1770.449 							"/>
							<polygon style="fill:#BFC2C4;" points="2365.041,1818.539 2137.787,1818.539 2144.509,1770.449 2371.762,1770.449 							"/>
							<polygon style="fill:#BFC2C4;" points="2125.95,1818.539 1787.267,1818.539 1793.989,1770.449 2132.672,1770.449 							"/>
						</g>
						<g>
							<polygon style="fill:#BFC2C4;" points="1884.596,2014.432 1520.795,2014.432 1527.517,1966.343 1891.318,1966.343 							"/>
							<polygon style="fill:#BFC2C4;" points="2123.657,2014.432 1896.404,2014.432 1903.126,1966.343 2130.379,1966.343 							"/>
						</g>
						<g>
							<polygon style="fill:#BFC2C4;" points="1823.78,1949.135 1529.923,1949.135 1536.645,1901.045 1830.502,1901.045 							"/>
							<polygon style="fill:#BFC2C4;" points="2175.381,1949.135 1836.698,1949.135 1843.42,1901.045 2182.102,1901.045 							"/>
						</g>
						<g>
							<polygon style="fill:#BFC2C4;" points="1853.78,1883.837 1539.05,1883.837 1545.772,1835.747 1860.502,1835.747 							"/>
							<polygon style="fill:#BFC2C4;" points="2242.287,1883.837 2103.68,1883.837 2110.402,1835.747 2249.009,1835.747 							"/>
							<polygon style="fill:#BFC2C4;" points="2093.156,1883.837 1864.704,1883.837 1871.426,1835.747 2099.878,1835.747 							"/>
						</g>
						<g>
							<polygon style="fill:#BFC2C4;" points="1826.398,2079.73 1511.668,2079.73 1518.39,2031.64 1833.12,2031.64 							"/>
							<polygon style="fill:#BFC2C4;" points="2214.905,2079.73 2076.298,2079.73 2083.02,2031.64 2221.627,2031.64 							"/>
							<polygon style="fill:#BFC2C4;" points="2065.774,2079.73 1837.323,2079.73 1844.045,2031.64 2072.496,2031.64 							"/>
						</g>
						<g>
							<path d="M1480.836,1856.301c0.765-5.828-0.845-10.283-4.827-13.365c-3.984-3.081-10.162-4.622-18.536-4.622l3.154-24.016
								c8.441,0,15.031-1.473,19.774-4.422c4.741-2.947,7.473-7.167,8.194-12.661l0.106-0.804l4.197-31.955
								c1.346-10.25,5.542-17.467,12.591-21.655c7.047-4.186,18.744-6.281,35.091-6.281l-2.969,22.61
								c-6.659,0.201-11.398,1.474-14.218,3.818c-2.82,2.346-4.529,5.796-5.128,10.35l-3.946,30.046
								c-2.056,12.595-10.871,20.031-26.444,22.308l-0.158,1.206c15.368,2.346,22.274,9.446,20.716,21.303l-0.119,0.904
								l-3.946,30.046c-0.598,4.555,0.188,8.004,2.359,10.35c2.17,2.344,6.592,3.618,13.265,3.818l-2.982,22.71
								c-16.347,0-27.494-2.094-33.441-6.28c-5.949-4.188-8.245-11.44-6.89-21.755L1480.836,1856.301z"/>
						</g>
						<g>
							<path d="M2301.415,2045.821c-0.994,8.299-3.265,14.562-6.809,18.787c-3.546,4.224-8.936,7.318-16.175,9.282
								c-7.239,1.963-17.047,2.946-29.422,2.946l3.01-25.123c7.355-0.149,12.573-1.483,15.654-4.002
								c3.081-2.52,4.937-6.411,5.567-11.672l3.982-33.238l0.146-1.223c0.763-6.373,3.568-11.542,8.417-15.507
								c4.846-3.964,11.607-6.576,20.281-7.837l0.16-1.334c-16.522-2.519-24.169-10.745-22.945-24.679l3.982-33.238
								c0.621-5.187-0.289-9.041-2.728-11.561c-2.441-2.519-7.354-3.891-14.737-4.113l2.997-25.012
								c12.375,0,21.966,0.983,28.772,2.946c6.804,1.965,11.453,5.077,13.944,9.338c2.491,4.262,3.248,10.469,2.271,18.62
								l-4.236,35.35l-0.133,1.112c-0.746,6.225,0.974,10.894,5.158,14.007c4.185,3.113,11.205,4.669,21.062,4.669l-3.183,26.568
								c-9.265,0-16.506,1.52-21.723,4.558c-5.219,3.04-8.258,8.153-9.119,15.341L2301.415,2045.821z"/>
						</g>
					</g>
					<g>
						<g>
							<path style="fill:#FFFFFF;" d="M2929.725,2047.331c-19.12-113.835-249.321-153.055-373.456-152.916
								c-89.849,0.1-137.023,7.801-138.702,31.269c-1.77,24.743,112.437,21.594,112.437,21.594s-131.023,9.398-131.099,35.511
								c-0.082,28.243,130.267,10.81,130.267,10.81s-131.82,8.444-126.844,33.675c3.518,17.838,134.711,19.409,134.711,19.409
								s-95.764,16.988-93.291,33.168c2.641,17.272,133.494,13.412,207.239,10.781
								C2704.299,2088.729,2936.417,2087.176,2929.725,2047.331z"/>
							<path d="M2546.42,2095.45c-8.831,0-17.46-0.076-25.767-0.246c-68.14-1.395-78.362-8.353-79.375-14.976
								c-0.809-5.294,3.239-13.691,47.548-25.446c9.013-2.391,18.116-4.498,25.924-6.188c-12.219-0.438-28.08-1.184-43.943-2.436
								c-19.402-1.531-35.031-3.509-46.453-5.88c-15.87-3.294-23.419-7.156-24.478-12.522c-0.571-2.899,0.165-5.703,2.19-8.333
								c5.34-6.937,20.655-12.988,45.642-18.056c-24.408-0.451-40.184-3.702-47.034-9.715c-2.842-2.495-4.278-5.479-4.269-8.872
								c0.036-12.396,22.167-22.211,67.655-30.004c8.035-1.376,16.095-2.56,23.682-3.561c-27.396-1.356-59.665-5.157-69.38-15.308
								c-2.401-2.509-3.508-5.336-3.288-8.403c0.91-12.736,13.428-21.458,38.268-26.666c22.279-4.671,54.984-6.872,102.925-6.925
								c58.111-0.045,148.18,8.79,226.869,33.836c62.026,19.742,138.234,56.798,149.055,121.167l0,0
								c0.634,3.774-0.425,7.362-3.145,10.664c-23.772,28.854-181.101,32.966-256.708,34.942
								c-8.516,0.223-15.869,0.415-21.261,0.607C2617.871,2094.315,2580.629,2095.45,2546.42,2095.45z M2487.288,2000.174
								c-33.944,4.262-73.029,11.608-81.26,22.301c-1.14,1.479-1.535,2.851-1.246,4.315c0.306,1.551,4.944,9.534,66.396,14.384
								c32.776,2.587,65.563,3.005,65.892,3.009l0.406,4.961c-0.238,0.042-24.133,4.306-47.394,10.478
								c-42.896,11.383-44.063,18.533-43.861,19.851c0.108,0.71,1.632,4.398,21.017,7.246c12.551,1.844,30.557,3.017,53.518,3.487
								c40.35,0.825,88.434-0.584,130.144-2.072c5.415-0.193,12.779-0.386,21.308-0.608c63.084-1.649,230.657-6.028,252.979-33.123
								c1.783-2.165,2.461-4.342,2.072-6.656c-10.394-61.887-84.937-97.909-145.639-117.23
								c-77.856-24.781-166.996-33.601-224.72-33.601c-0.212,0-0.417,0-0.628,0c-66.337,0.074-134.396,3.572-136.212,28.948
								c-0.115,1.622,0.51,3.123,1.913,4.589c13.235,13.828,82.421,15.032,107.961,14.328l0.248,4.993
								c-0.326,0.023-33.037,2.408-65.308,7.939c-40.31,6.909-63.443,16.052-63.47,25.085c-0.006,1.91,0.834,3.578,2.567,5.099
								c10.756,9.441,49.565,9.474,82.937,7.289c22.989-2.837,41.877-4.066,42.104-4.08l0.491,4.973
								C2529.28,1996.106,2510.427,1998.607,2487.288,2000.174z"/>
						</g>
					</g>
				</g>
				<g>
					<path style="fill:#FFFFFF;" d="M3321.021,1747.75"/>
					<g>
						<path style="fill:#FFFFFF;" d="M3665.492,1690.376c0,0-202.9,131.558-470.099,193.54
							c-227.271,52.72-453.411,17.627-453.411,17.627c-86.158,24.528-52.341,221.529,18.564,221.529
							c0,0,328.571,18.438,498.341-19.675c284.2-63.803,520.585-159.191,520.585-159.191L3665.492,1690.376z"/>
					</g>
				</g>
				<g>
					<g>
						<g>
							<path style="fill:#FFFFFF;" d="M3641.051,1703.374c0,0-178.458,118.56-445.657,180.542
								c-227.271,52.72-453.411,17.627-453.411,17.627c-86.158,24.528-52.341,221.529,18.564,221.529
								c0,0,328.571,18.438,498.341-19.675c284.2-63.803,475.148-143.887,475.148-143.887"/>
							<path d="M2941.018,2130.031c-98.632,0-177.737-4.304-180.541-4.458c-17.19-0.029-33.198-10.836-46.294-31.257
								c-11.705-18.251-20.193-42.937-23.902-69.512c-3.965-28.41-2.018-56.064,5.483-77.869
								c8.691-25.262,24.437-41.79,45.534-47.796l0.526-0.15l0.541,0.083c0.564,0.088,57.415,8.78,141.248,10.93
								c77.334,1.983,194.103-1.355,311.216-28.522c137.757-31.955,251.363-79.242,322.41-113.285
								c76.995-36.892,121.982-66.609,122.428-66.905l2.768,4.165c-0.448,0.297-45.654,30.165-122.933,67.2
								c-71.292,34.167-185.296,81.626-323.543,113.695c-117.658,27.292-234.918,30.644-312.562,28.647
								c-79.71-2.049-135.156-9.998-141.245-10.902c-42.239,12.454-54.018,69.159-46.92,120.015
								c8.839,63.327,39.547,96.46,65.313,96.46l0.14,0.004c0.821,0.046,83.31,4.626,185.392,4.451
								c94.174-0.142,224.793-4.433,312.263-24.069c280.702-63.018,472.821-142.953,474.729-143.753l1.934,4.611
								c-1.911,0.802-194.404,80.899-475.567,144.021c-87.92,19.738-218.945,24.049-313.379,24.19
								C2944.378,2130.03,2942.686,2130.031,2941.018,2130.031z"/>
						</g>
					</g>
				</g>
			</g>
		</g>
	</g>
	<g>
		<path d="M1099.182,2623.177c-7.236-51.545-35.352-140.573-175.572-109.765c-134.018,29.446-117.631,202.94-226.86,306.681
			c-109.229,103.741-325.888,91.819-276.573,373.899c58.18,332.786,615.15,63.543,615.15,63.543S1113.34,2724.043,1099.182,2623.177
			z"/>
		<g>
			<path style="fill:#FFFFFF;" d="M642.096,3363.282c-32.275-7.694-70.713-33.371-102.822-68.685
				c-35.946-39.534-58.613-85.106-63.827-128.321c-6.212-51.49,9.348-124.656,118.757-180.808
				c163.985-84.162,189.832-161.366,225.604-268.221c7.379-22.041,15.009-44.832,24.378-69.418
				c17.994-47.22,43.436-81.245,75.618-101.132c34.034-21.03,65.271-19.639,80.862-16.937c26.686,4.625,46.289,19.192,46.612,34.639
				l-5.999,0.125c-0.284-13.592-21.394-25.344-41.637-28.852c-48.199-8.354-112.881,17.284-149.849,114.293
				c-9.325,24.471-16.936,47.202-24.295,69.187c-36.224,108.199-62.396,186.376-228.555,271.653
				c-58.692,30.122-126.38,84.892-115.539,174.751c5.065,41.989,27.194,86.383,62.31,125.003
				c30.86,33.941,69.092,59.57,99.774,66.886L642.096,3363.282z"/>
		</g>
		<g>
			<path style="fill:#FFFFFF;" d="M731.832,3355.091c-36.62-13.082-121.137-90.507-123.192-169.027
				c-0.625-23.882,6.536-45.754,21.284-65.01c16.563-21.625,42.873-40.066,78.202-54.813
				c66.107-27.595,117.587-80.1,153.012-156.057c34.767-74.547,45.631-153.035,48.624-205.752
				c4.123-72.636,22.886-119.459,55.767-139.17c33.227-19.916,67.997-4.206,69.461-3.527l-2.523,5.443l1.262-2.722l-1.259,2.724
				c-0.331-0.152-33.453-15.042-63.918,3.266c-31.034,18.651-48.798,63.846-52.799,134.326
				c-3.023,53.242-14.007,132.538-49.176,207.948c-36.076,77.354-88.609,130.869-156.138,159.058
				c-64.841,27.066-97.073,65.465-95.799,114.129c0.852,32.577,17.557,69.875,47.036,105.021
				c18.878,22.507,49.517,50.418,72.176,58.513L731.832,3355.091z"/>
		</g>
		<g>
			<g>
				<g>
					<g>
						<path style="fill:#FFFFFF;" d="M1473.794,2928.17c-51.334-40.246,22.439-151.552,56.047-213.126
							c24.326-44.567,40.894-65.901,52.995-60.393c12.759,5.807-19.661,61.64-19.661,61.64s40.065-62.491,53.046-55.474
							c14.04,7.591-29.831,67.576-29.831,67.576s39.807-63.145,50.985-53.858c7.903,6.565-26.764,72.105-26.764,72.105
							s34.306-42.941,41.668-37.341c7.859,5.977-29.411,69.881-50.642,105.771C1586.29,2841.016,1491.762,2942.257,1473.794,2928.17
							z"/>
						<path d="M1478.183,2932.507c-2.471,0-4.562-0.66-6.24-1.976l0,0c-21.043-16.499-24.407-44.987-10.281-87.093
							c11.768-35.078,33.9-73.945,51.685-105.176c5.013-8.805,9.749-17.12,13.862-24.656c27.552-50.478,43.497-67.774,56.871-61.687
							c1.979,0.9,3.409,2.583,4.137,4.865c1.836,5.755-1.148,16.257-5.497,26.971c22.083-27.9,30.509-27.97,34.93-25.577
							c2.078,1.123,3.476,3.046,4.043,5.562c0.947,4.201-0.626,10.441-3.526,17.451c5.625-5.715,10.963-9.813,15.136-10.476
							c2.894-0.461,4.855,0.568,5.991,1.512c3.474,2.886,4.716,9.978-9.596,42.045c-1.854,4.154-3.771,8.272-5.614,12.131
							c0.798-0.866,1.607-1.734,2.423-2.596c10.827-11.441,21.663-21.402,27.59-16.896c6.556,4.986,0.497,24.533-49.876,109.687
							c-14.986,25.335-94.184,110.194-122.95,115.603C1480.184,2932.405,1479.154,2932.507,1478.183,2932.507z M1475.645,2925.809
							c0.917,0.72,2.437,0.887,4.516,0.495c11.5-2.162,34.897-20.176,64.191-49.423c23.607-23.568,47.636-51.39,54.704-63.338
							c11.463-19.378,24.577-41.853,34.932-61.622c16.03-30.604,16.667-38.308,16.359-40.103
							c-1.285,0.213-6.423,2.109-20.712,17.422c-8.801,9.432-16.602,19.176-16.679,19.273c-0.966,1.208-2.694,1.484-3.989,0.636
							s-1.73-2.543-1.007-3.911c21.702-41.031,29.152-64.996,27.411-68.464c-0.159-0.108-0.461-0.235-1.127-0.133
							c-6.523,1.036-19.668,16.604-31.297,32.669c-6.559,10.399-12.644,18.814-14.135,20.854c-0.955,1.304-2.772,1.618-4.108,0.71
							c-1.337-0.909-1.713-2.714-0.851-4.081c1.351-2.144,6.869-10.801,14-20.701c10.311-16.426,19.536-34.16,17.986-41.031
							c-0.237-1.05-0.683-1.409-1.044-1.604c-0.601-0.32-6.497-2.416-27.586,24.296c-11.417,14.461-21.408,30.003-21.507,30.158
							c-0.881,1.373-2.696,1.791-4.088,0.941s-1.85-2.656-1.031-4.066c9.94-17.124,24.681-47.517,21.918-56.177
							c-0.304-0.953-0.726-1.146-0.906-1.228c-12.116-5.521-33.831,31.09-49.119,59.101c-4.139,7.583-8.887,15.922-13.915,24.75
							c-17.655,31.005-39.627,69.591-51.21,104.115C1454.132,2884.747,1456.848,2911.068,1475.645,2925.809L1475.645,2925.809z
							 M1635.336,2676.71L1635.336,2676.71C1635.336,2676.71,1635.336,2676.711,1635.336,2676.71z"/>
					</g>
				</g>
			</g>
			<g>
				<g>
					<g>
						<path style="fill:#FFFFFF;" d="M1052.271,2874.043c0,0,238.724,169.237,324.276,211.631
							c86.418,42.823,229.577-265.475,229.577-265.475c6.465-34.22-52.565-82.053-102.702-75.054
							c-39.952,70.792-100.012,212.302-142.944,186.103c-81.935-50.001-291.544-207.205-291.544-207.205"/>
						<path d="M1394.049,3092.747c-6.639,0-12.935-1.462-18.833-4.385c-84.783-42.014-322.29-210.179-324.679-211.872l3.47-4.895
							c2.385,1.69,239.509,169.585,323.874,211.39c9.493,4.704,20.302,4.981,32.127,0.824
							c81.674-28.706,188.409-254.243,193.236-264.529c1.97-11.389-4.098-25.46-16.697-38.68
							c-17.562-18.426-50.292-36.305-81.246-32.673c-7.443,13.268-15.579,28.934-24.175,45.487
							c-32.572,62.721-69.489,133.81-102.487,143.012c-7.029,1.958-13.663,1.078-19.721-2.618
							c-81.119-49.503-289.684-205.793-291.781-207.365l3.6-4.801c2.095,1.571,210.432,157.69,291.307,207.045
							c4.645,2.834,9.546,3.476,14.983,1.959c30.486-8.501,68.35-81.412,98.774-139.997c8.906-17.149,17.318-33.348,25.011-46.979
							l0.729-1.292l1.469-0.204c33.656-4.708,68.387,13.836,87.88,34.287c14.083,14.776,20.711,30.921,18.184,44.294l-0.069,0.368
							l-0.157,0.339c-0.275,0.593-27.956,59.983-65.72,122.266c-50.952,84.033-95.07,133.068-131.129,145.742
							C1405.781,3091.655,1399.787,3092.747,1394.049,3092.747z"/>
					</g>
				</g>
			</g>
		</g>
		<g>
			<rect x="388.164" y="3865.635" width="3685.726" height="6"/>
		</g>
		<g>
			<g>
				<g>
					<g>
						<g>
							<path d="M839.829,3791.597c0,0-216.209,89.564-239.395,82.269c-23.185-7.296-27.912-15.272-21.061-22.75l250.087-272.933
								c4.066-4.438,11.205-4.545,15.273-0.229l125,132.59c4.421,4.689,3.011,12.179-2.868,15.235l-125.198,65.073
								C841.081,3791.155,840.465,3791.406,839.829,3791.597z"/>
							<path d="M603.837,3876.247c-1.633,0-2.979-0.152-4.003-0.474c-15.215-4.788-23.407-10.082-25.044-16.185
								c-0.886-3.301,0.161-6.605,3.109-9.824l250.087-272.934c2.333-2.547,5.68-4.021,9.181-4.047
								c3.455-0.029,6.724,1.359,9.021,3.797l125,132.59c2.494,2.646,3.579,6.203,2.976,9.762c-0.626,3.696-2.95,6.838-6.377,8.619
								l-125.198,65.073c-0.666,0.346-1.367,0.634-2.084,0.856c-2.517,1.041-55.717,23.017-110.973,43.856
								C703.115,3847.302,626.37,3876.247,603.837,3876.247z M837.257,3576.784c-0.021,0-0.04,0-0.062,0
								c-2.393,0.018-4.675,1.02-6.26,2.75l-250.087,272.934c-1.992,2.174-2.71,4.164-2.195,6.085
								c0.851,3.17,5.424,8.068,22.381,13.404c0.803,0.253,1.877,0.375,3.195,0.375c28.964,0.005,177.493-58.829,234.834-82.583
								l0.189-0.067c0.515-0.155,1.018-0.359,1.494-0.606l125.197-65.072c2.304-1.197,3.863-3.289,4.278-5.738
								c0.391-2.311-0.317-4.625-1.942-6.35l-125-132.59C841.754,3577.708,839.562,3576.784,837.257,3576.784z"/>
						</g>
						<g>
							<polygon style="fill:#FFFFFF;" points="582.426,3865.655 553.03,3843.627 811.94,3549.547 844.733,3577.953 							"/>
							<path d="M582.808,3869.689l-34.175-25.608l263.022-298.75l37.368,32.369L582.808,3869.689z M557.427,3843.173l24.618,18.448
								l258.398-283.415l-28.218-24.443L557.427,3843.173z"/>
						</g>
						<g>
							<g>
								<path style="fill:#FFFFFF;" d="M657.263,3865.497c-2.142,0-4.041-1.536-4.426-3.719l-6.514-36.892
									c-0.432-2.447,1.202-4.781,3.649-5.214c2.445-0.436,4.782,1.203,5.214,3.649l6.514,36.892
									c0.432,2.447-1.202,4.781-3.649,5.214C657.787,3865.475,657.523,3865.497,657.263,3865.497z"/>
							</g>
							<g>
								<path style="fill:#FFFFFF;" d="M683.018,3858.682c-2.142,0-4.04-1.536-4.426-3.719l-8.132-46.057
									c-0.432-2.447,1.202-4.781,3.649-5.214c2.445-0.429,4.782,1.202,5.214,3.649l8.132,46.057
									c0.432,2.447-1.202,4.781-3.649,5.214C683.541,3858.659,683.277,3858.682,683.018,3858.682z"/>
							</g>
							<g>
								<path style="fill:#FFFFFF;" d="M711.088,3847.438c-2.143,0-4.041-1.535-4.426-3.719l-9.685-54.854
									c-0.432-2.447,1.202-4.781,3.649-5.214c2.444-0.433,4.781,1.202,5.214,3.649l9.686,54.854
									c0.432,2.447-1.202,4.781-3.649,5.214C711.611,3847.416,711.348,3847.438,711.088,3847.438z"/>
							</g>
						</g>
						<g>
							<path style="fill:#FFFFFF;" d="M839.827,3796.098c-1.934,0-3.721-1.257-4.307-3.204c-0.716-2.379,0.632-4.89,3.012-5.605
								c0.367-0.11,0.724-0.256,1.063-0.432c2.207-1.145,4.922-0.284,6.067,1.921c1.146,2.206,0.286,4.922-1.92,6.067
								c-0.833,0.433-1.713,0.79-2.614,1.061C840.694,3796.036,840.257,3796.098,839.827,3796.098z"/>
						</g>
					</g>
					<g>
						<g>
							<g>
								<path style="fill:#FFFFFF;" d="M846.99,3570.287c0,0,256.706,17.559,343.04,24.911
									c-173.525-39.681-258.018-190.623-258.018-190.623c77.629-76.116,223.249-192.438,326.383-241.441
									c0,0,216.826,322.048,301.863,468.333c67.89,116.788,3.168,242.89-168.806,242.89c-249.971,0-610.019-8.702-610.019-8.702
									C727.535,3844.488,802.497,3636.068,846.99,3570.287z"/>
								<path d="M1391.452,3877.357c-247.148,0-606.491-8.616-610.091-8.703l-0.531-0.013l-0.494-0.194
									c-8.146-3.199-13.962-10.254-17.288-20.969c-11.062-35.641,7.457-103.282,19.479-140.431
									c17.376-53.688,42.283-109.324,61.977-138.441l0.967-1.43l1.722,0.117c2.299,0.157,207.127,14.181,311.228,22.331
									c-28.887-9.286-56.857-22.143-83.477-38.392c-28.799-17.58-56.09-39.147-81.115-64.104
									c-42.616-42.498-64.224-80.708-64.437-81.089l-1.121-2.002l1.638-1.605c41.333-40.528,97.433-88.325,153.915-131.138
									c46.034-34.892,113.464-82.45,173.281-110.872l2.333-1.108l1.442,2.143c2.169,3.222,217.854,323.804,301.968,468.502
									c32.735,56.313,35.826,115.868,8.479,163.396c-14.619,25.408-37.814,46.407-67.077,60.728
									C1472.697,3869.527,1434.745,3877.357,1391.452,3877.357z M782.055,3862.669c16.126,0.386,366.831,8.688,609.396,8.688
									c42.371,0,79.436-7.625,110.165-22.662c28.185-13.793,50.493-33.963,64.513-58.331
									c26.247-45.616,23.161-102.982-8.466-157.389c-80.389-138.291-281.229-437.62-300.312-466.017
									c-96.375,46.479-238.178,156.737-321.567,238.122c4.956,8.279,25.827,41.479,62.423,77.941
									c24.684,24.594,51.589,45.842,79.97,63.154c35.438,21.617,73.296,37.126,112.521,46.096l-0.923,5.914
									c-81.615-6.95-318.571-23.232-341.258-24.788c-37.461,56.585-97.234,215.93-79.738,272.302
									C771.468,3854.366,775.934,3860.072,782.055,3862.669z"/>
							</g>
						</g>
					</g>
				</g>
			</g>
			<g>
				
					<rect x="1266.703" y="3516.202" transform="matrix(0.054 -0.9985 0.9985 0.054 -2393.0786 4672.8345)" width="6.001" height="166.482"/>
			</g>
			<path style="opacity:0.5;fill:#7979C6;" d="M1033.729,3493.83c0,0,336.368,21.032,490.452,268.952
				c74.817,120.38,103.317-28.544,82.432-104.999c-35.33-129.33-162.052-332.716-162.052-332.716L1033.729,3493.83z"/>
		</g>
		<g>
			<g>
				<g>
					<g>
						<g>
							<path d="M1897.897,3681.476c0,0,215.621,109.858,225.106,133.258c9.485,23.4,6.183,32.632-4.394,32.34l-386.051-10.652
								c-6.277-0.173-11.096-5.76-10.311-11.952l24.117-190.27c0.853-6.729,7.832-10.76,14.195-8.2l135.517,54.532
								C1896.711,3680.788,1897.321,3681.104,1897.897,3681.476z"/>
							<path d="M2119.093,3849.081c-0.178,0-0.358-0.003-0.54-0.008l-386.051-10.652c-3.569-0.099-6.955-1.719-9.291-4.444
								c-2.318-2.704-3.393-6.261-2.95-9.758l24.118-190.271c0.481-3.798,2.646-7.084,5.937-9.018
								c3.343-1.964,7.349-2.249,10.988-0.785l135.517,54.532c0.718,0.288,1.415,0.646,2.072,1.063
								c2.508,1.28,55.514,28.354,108.966,57.84c27.405,15.117,110.803,61.121,116.997,76.404
								c6.201,15.298,7.375,25.387,3.587,30.844C2126.484,3847.651,2123.34,3849.081,2119.093,3849.081z M1756.583,3627.223
								c-1.476,0-2.934,0.389-4.24,1.156c-2.214,1.301-3.67,3.514-3.995,6.072l-24.117,190.271
								c-0.301,2.379,0.435,4.804,2.019,6.652c1.603,1.87,3.922,2.981,6.364,3.049l386.051,10.652
								c3.13,0.076,5.253-0.74,6.494-2.528c2.004-2.889,2.936-9.928-4.008-27.062c-2.114-5.216-19.894-21.818-115.214-74.399
								c-54.433-30.026-108.407-57.553-108.946-57.827l-0.179-0.104c-0.467-0.303-0.965-0.561-1.479-0.767l-135.519-54.533
								C1758.761,3627.433,1757.667,3627.223,1756.583,3627.223z"/>
						</g>
						<g>
							<polygon style="fill:#FFFFFF;" points="2128.317,3834.658 2130.032,3873.111 1721.066,3870.001 1722.246,3824.469 							"/>
							<path d="M2133.17,3876.135l-3.161-0.023l-412.021-3.134l1.337-51.582l411.865,10.333L2133.17,3876.135z M1724.144,3867.024
								l402.75,3.063l-1.45-32.501l-400.277-10.042L1724.144,3867.024z"/>
						</g>
						<g>
							<g>
								<path style="fill:#FFFFFF;" d="M2049.483,3813.546c-1.016,0-2.038-0.342-2.879-1.044c-1.909-1.591-2.167-4.429-0.575-6.338
									l25.451-30.528c1.592-1.908,4.43-2.167,6.338-0.574c1.909,1.591,2.167,4.429,0.575,6.338l-25.451,30.528
									C2052.052,3812.995,2050.772,3813.546,2049.483,3813.546z"/>
							</g>
							<g>
								<path style="fill:#FFFFFF;" d="M2020.586,3805.395c-1.016,0-2.038-0.342-2.879-1.044c-1.909-1.591-2.167-4.429-0.575-6.338
									l31.773-38.112c1.592-1.908,4.43-2.167,6.338-0.574c1.909,1.591,2.167,4.429,0.575,6.338l-31.773,38.112
									C2023.155,3804.844,2021.875,3805.395,2020.586,3805.395z"/>
							</g>
							<g>
								<path style="fill:#FFFFFF;" d="M1986.833,3798.147c-1.016,0-2.038-0.342-2.879-1.044c-1.909-1.591-2.167-4.429-0.575-6.338
									l37.844-45.393c1.592-1.908,4.429-2.166,6.338-0.574c1.909,1.591,2.167,4.429,0.575,6.338l-37.844,45.393
									C1989.401,3797.597,1988.122,3798.147,1986.833,3798.147z"/>
							</g>
						</g>
					</g>
					<g>
						<g>
							<g>
								<path style="fill:#FFFFFF;" d="M1667.906,3848.79l-137.629-477.147l-452.626,177.904
									c-186.249-123.094-223.283-280.877-95.473-322.82c131.118-43.028,739.985-280.75,802.017-89.03
									c37.756,116.692,204.296,585.854,204.296,585.854C1944.912,3761.683,1720.586,3869.028,1667.906,3848.79z"/>
								<path d="M1684.795,3854.217c-8.528,0-14.207-1.183-17.965-2.626l-1.393-0.535l-0.414-1.435l-136.716-473.981l-451.01,177.27
									l-1.3-0.859c-57.903-38.269-104.41-82.01-134.491-126.495c-28.699-42.44-41.365-83.521-36.629-118.798
									c2.584-19.247,10.304-36.098,22.944-50.084c13.015-14.4,30.988-25.435,53.421-32.797
									c13.559-4.449,31.825-10.841,54.952-18.934c83.53-29.228,223.334-78.147,359.248-110.631
									c75.2-17.973,140.626-28.799,194.459-32.179c64.017-4.018,113.487,2.385,147.035,19.033
									c25.392,12.601,42.252,31.31,50.114,55.606c37.311,115.317,202.603,581.083,204.268,585.774l0.682,1.92l-1.533,1.342
									c-22.524,19.709-90.31,56.256-157.676,85.01C1751.083,3845.692,1707.687,3854.217,1684.795,3854.217z M1670.36,3846.474
									c23.113,7.411,81.202-7.508,160.074-41.174c65.38-27.906,130.982-63.053,154.538-82.69
									c-11.754-33.131-167.528-472.403-203.632-583.989c-7.345-22.702-23.183-40.225-47.072-52.079
									c-141.235-70.091-530.058,65.967-696.093,124.065c-23.157,8.103-41.448,14.503-55.062,18.971
									c-42.307,13.884-67.304,40.848-72.29,77.979c-4.537,33.795,7.792,73.437,35.653,114.638
									c29.42,43.508,74.881,86.358,131.53,123.99l454.24-178.538L1670.36,3846.474z"/>
							</g>
						</g>
					</g>
				</g>
			</g>
			<g>
				
					<rect x="1505.474" y="3226.428" transform="matrix(0.9559 -0.2937 0.2937 0.9559 -902.7742 588.512)" width="6" height="148.488"/>
			</g>
		</g>
		<g>
			<g>
				<g>
					<g>
						<g>
							<path style="fill:#FFFFFF;" d="M906.918,3343.401c0,0-66.685-324.201-92.537-482.697
								c-25.852-158.496,115.594-177.296,177.534-167.774c35.527,5.462,133.839,43.169,147.229,97.075
								c74.37,299.405,142.654,347.541,142.654,347.541C1169.684,3150.635,922.297,3258.175,906.918,3343.401z"/>
							<path d="M907.111,3359.228l-3.131-15.223c-0.667-3.243-66.993-326.075-92.56-482.817
								c-9.138-56.023,1.474-99.814,31.541-130.158c43.466-43.865,114.369-46.451,149.411-41.063
								c18.039,2.773,51.676,13.565,82.903,30.706c26.273,14.422,59.186,38.031,66.781,68.61
								c21.042,84.714,55.192,202.803,98.386,284.297c25.869,48.806,42.926,61.401,43.095,61.523l6.293,4.519l-7.685,0.905
								c-56.569,6.604-146.071,36.976-222.714,75.575c-88.425,44.533-142.938,91.126-149.561,127.832L907.111,3359.228z
								 M963.625,2693.882c-14.45,0-29.408,1.495-43.44,4.438c-30.029,6.296-55.259,19.067-72.962,36.934
								c-28.639,28.901-38.692,70.947-29.881,124.968c22.765,139.567,77.894,411.029,90.101,470.784
								c7.042-17.538,22.75-36.386,46.868-56.201c25.672-21.093,61.089-43.244,102.422-64.061
								c74.344-37.442,160.828-67.214,218.21-75.334c-7.048-7.095-20.941-23.637-39.23-57.944
								c-43.73-82.028-78.234-201.204-99.48-286.735c-12.979-52.255-110.063-89.497-144.773-94.834
								C982.693,2694.548,973.271,2693.882,963.625,2693.882z"/>
						</g>
					</g>
				</g>
			</g>
			<path style="opacity:0.5;fill:#7979C6;" d="M867.989,2960.842c33.609-107.598,431.261,142.011,405.381,199.954
				C1247.489,3218.74,834.38,3068.44,867.989,2960.842z"/>
		</g>
		<g>
			<g>
				<g>
					<g>
						<g>
							<g>
								<path style="fill:#FFFFFF;" d="M946.152,2696.667l70.156-73.489l47.521,38.214l-48.083,43.343
									c0,0,89.158,81.207,62.573,99.818C1047.915,2825.837,943.939,2711.978,946.152,2696.667z"/>
								<path d="M1069.12,2810.188c-7.988,0-18.101-3.744-30.235-11.214c-18.586-11.441-42.503-32.313-63.978-55.831
									c-7.798-8.54-33.133-37.161-31.724-46.906l0.137-0.949l72.721-76.175l52.414,42.148l-48.26,43.501
									c12.562,11.742,67.707,64.865,66.035,90.959c-0.31,4.832-2.393,8.63-6.19,11.289
									C1077.012,2809.13,1073.366,2810.188,1069.12,2810.188z M949.159,2697.861c0.78,4.396,10.204,19.362,30.179,41.237
									c21.12,23.128,44.556,43.602,62.693,54.767c16.125,9.926,28.08,12.773,34.568,8.229c2.293-1.604,3.451-3.752,3.644-6.756
									c0.363-5.669-2.773-13.762-9.322-24.056c-5.433-8.54-13.163-18.47-22.974-29.513c-16.794-18.902-34.047-34.661-34.22-34.818
									l-2.448-2.229l47.926-43.201l-42.629-34.279L949.159,2697.861z"/>
							</g>
						</g>
					</g>
				</g>
			</g>
			<g>
				<g>
					<path style="fill:#FFFFFF;" d="M1044.279,2564.463c-14.636-0.64,4.241,42.114-34.07,26.188
						c-5.523,0.307-10.151,6.606-10.498,14.552c-0.297,6.802,2.636,12.682,6.921,14.729c2.674,21.087,30.2,49.505,47.395,50.257
						c19.897,0.87,23.104-31.515,24.233-57.357C1079.39,2586.988,1064.176,2565.333,1044.279,2564.463z"/>
					<path d="M1054.832,2673.205c-0.31,0-0.62-0.007-0.935-0.021c-8.907-0.389-20.565-7.279-31.185-18.431
						c-10.106-10.612-17.049-22.8-18.829-32.944c-4.648-3.098-7.482-9.58-7.169-16.738c0.417-9.529,6.146-17.017,13.328-17.416
						l0.685-0.038l0.634,0.263c8.318,3.459,14.232,4.233,17.573,2.299c3.752-2.171,4.513-8.09,5.249-13.814
						c0.874-6.799,1.984-15.276,10.227-14.898l0,0c21.518,0.941,38.047,24.042,36.848,51.495
						c-0.565,12.932-1.626,27.73-5.208,39.442C1071.828,2666.212,1064.691,2673.205,1054.832,2673.205z M1009.781,2593.717
						c-3.7,0.682-6.814,5.707-7.072,11.616c-0.233,5.335,1.961,10.335,5.217,11.891l1.477,0.706l0.206,1.624
						c1.167,9.202,7.69,20.814,17.448,31.063c9.433,9.905,19.817,16.256,27.102,16.574c2.707,0.12,10.95,0.479,16.154-16.542
						c3.404-11.134,4.434-26.129,4.951-37.949c1.055-24.148-12.904-44.442-31.116-45.239c-2.227-0.062-3.002,1.801-4.014,9.67
						c-0.835,6.498-1.875,14.585-8.195,18.242C1026.942,2598.262,1019.689,2597.723,1009.781,2593.717z"/>
				</g>
			</g>
		</g>
		<g>
			<path d="M1064.333,2951.119l-1.008-5.914c0.386-0.066,38.679-6.913,47.388-32.719c6.469-19.169-4.503-44.186-32.611-74.355
				l4.39-4.09c29.738,31.918,41.144,58.965,33.899,80.387c-4.119,12.182-14.484,22.399-29.974,29.549
				C1074.934,2949.277,1064.761,2951.047,1064.333,2951.119z"/>
		</g>
		<g>
			<path style="fill:#FFFFFF;" d="M1152.026,2923.759c0,0,98.834-46.747-14.862-116.065L1152.026,2923.759z"/>
			<g>
				<path d="M1153.309,2926.471l-2.567-5.423c0.366-0.174,36.598-17.682,38.07-45.836c1.093-20.909-16.809-42.764-53.21-64.956
					l3.123-5.123c38.442,23.438,57.31,47.129,56.078,70.416c-0.7,13.236-8.149,26.265-21.542,37.676
					C1163.327,2921.688,1153.713,2926.279,1153.309,2926.471z"/>
			</g>
		</g>
		<g>
			<g>
				<g>
					<g>
						<g>
							<path style="fill:#ff8e3c;" d="M1240.214,2075.145c2.588-158.9,133.501-285.617,292.401-283.029
								c158.901,2.588,285.617,133.501,283.029,292.401c-1.679,103.069-172.26,230.883-174.109,344.391
								c-1.849,113.508-4.301,264.074-4.301,264.074l-238.52-3.885c0,0,2.18-133.839,4.331-265.935
								C1405.197,2291.066,1238.556,2176.956,1240.214,2075.145z"/>
							<g>
								<path style="fill:#FFFFFF;" d="M1552.968,2530.818c-0.342,0-0.689-0.035-1.038-0.108c-2.702-0.57-4.43-3.224-3.859-5.926
									l76.452-362.143c-10.056,12.321-20.033,17.905-30.183,16.97c-9.716-0.894-18.495-7.812-26.092-20.563
									c-1.446-2.427-2.703-4.829-3.77-7.047c-8.563,15.848-18.499,23.983-29.619,24.216c-17.999,0.342-32.636-20.039-39.751-32.17
									c-10.126,16.983-21.061,25.323-32.563,24.771c-9.595-0.447-17.599-6.925-23.716-14.442l56.864,368.59
									c0.421,2.729-1.45,5.283-4.179,5.704c-2.726,0.428-5.283-1.449-5.704-4.179l-60.914-394.845
									c-0.389-2.518,1.179-4.926,3.639-5.589c2.459-0.665,5.026,0.628,5.957,3c3.399,8.626,15.154,31.157,28.528,31.771
									c8.813,0.415,18.382-9.116,27.673-27.533c0.851-1.687,2.578-2.748,4.463-2.748c0.021,0,0.042,0,0.062,0
									c1.91,0.023,3.639,1.133,4.457,2.858c4.623,9.728,19.816,34.815,34.7,34.815c0.095,0,0.188-0.001,0.283-0.003
									c11.252-0.242,20.109-15.625,25.557-28.487c0.815-1.925,2.745-3.161,4.832-3.044c2.088,0.095,3.897,1.48,4.534,3.472
									c2.686,8.351,12.538,30.296,25.686,31.495c10.395,0.951,22.6-11.065,35.315-34.737c1.177-2.191,3.785-3.186,6.122-2.33
									c2.336,0.854,3.689,3.295,3.175,5.729l-82.023,388.535C1557.359,2529.204,1555.282,2530.818,1552.968,2530.818z"/>
							</g>
							<path d="M1373.447,2686.912L1373.447,2686.912c0.221-12.666,7.511-23.758,18.308-30.102
								c-10.57-6.67-17.469-17.977-17.248-30.643h0c0.26-14.89,10.285-27.609,24.299-32.99
								c-13.819-5.804-23.395-18.821-23.135-33.711l0,0c0.349-19.981,18.275-36.06,39.837-35.732l210.8,3.207
								c21.562,0.328,38.918,16.944,38.569,36.925l0,0c-0.26,14.89-10.285,27.609-24.299,32.99
								c13.819,5.804,23.395,18.821,23.135,33.711l0,0c-0.221,12.666-7.511,23.758-18.308,30.102
								c10.57,6.67,17.469,17.977,17.249,30.643l0,0c-0.349,19.98-18.276,36.06-39.838,35.732l-210.799-3.207
								C1390.455,2723.509,1373.098,2706.893,1373.447,2686.912z"/>
							<g>
								<line x1="1391.755" y1="2656.81" x2="1640.578" y2="2596.855"/>
								
									<rect x="1388.194" y="2622.604" transform="matrix(0.9722 -0.2343 0.2343 0.9722 -573.177 428.2753)" style="fill:#FFFFFF;" width="255.944" height="8.458"/>
							</g>
							<g>
								<line x1="1397.364" y1="2593.709" x2="1646.187" y2="2533.754"/>
								
									<rect x="1393.803" y="2559.503" transform="matrix(0.9722 -0.2343 0.2343 0.9722 -558.2693 427.863)" style="fill:#FFFFFF;" width="255.944" height="8.458"/>
							</g>
							<g>
								<line x1="1398.065" y1="2721.313" x2="1646.888" y2="2661.358"/>
								
									<rect x="1394.504" y="2687.106" transform="matrix(0.9722 -0.2343 0.2343 0.9722 -588.1442 431.5785)" style="fill:#FFFFFF;" width="255.944" height="8.458"/>
							</g>
						</g>
					</g>
				</g>
			</g>
		</g>
		<g>
			<g>
				<polygon style="fill:#FFFFFF;" points="1389.59,2724.176 1370.42,2823.994 1426.541,2811.197 1426.541,2724.043 				"/>
				<path d="M1370.42,2826.993c-0.769,0-1.519-0.296-2.084-0.843c-0.729-0.704-1.053-1.728-0.862-2.723l19.17-99.817
					c0.271-1.409,1.501-2.43,2.936-2.435l36.95-0.133c0.832-0.012,1.563,0.312,2.128,0.875c0.565,0.563,0.882,1.327,0.882,2.125
					v87.154c0,1.4-0.968,2.613-2.333,2.925l-56.121,12.796C1370.866,2826.969,1370.642,2826.993,1370.42,2826.993z
					 M1392.071,2727.167l-17.838,92.88l49.308-11.242v-81.751L1392.071,2727.167z"/>
			</g>
			<g>
				<g>
					<g>
						<path style="fill:#FFFFFF;" d="M1345.47,2967.855c-64.04-42.703,13.265-153.254,67.045-254.944
							c28.395-53.691,48.917-78.832,63.393-72.243c15.262,6.946-23.519,73.734-23.519,73.734s47.926-74.753,63.454-66.358
							c16.795,9.08-35.684,80.835-35.684,80.835s47.617-75.534,60.99-64.425c9.454,7.854-31.104,82.705-31.104,82.705
							s40.126-47.818,48.933-41.12c9.401,7.15-35.182,83.592-60.579,126.525C1480.039,2863.601,1368.193,2983.007,1345.47,2967.855z
							"/>
						<path d="M1350.411,2972.175c-2.573,0-4.785-0.609-6.606-1.823l0,0c-25.626-17.088-31.844-46.005-19.009-88.403
							c11.186-36.951,35.742-81.063,59.489-123.721c8.558-15.374,17.408-31.271,25.578-46.719
							c31.13-58.866,51.251-80.867,67.288-73.571c2.211,1.006,3.813,2.896,4.632,5.462c2.382,7.468-2.182,21.824-8.207,35.845
							c0.78-1.011,1.569-2.021,2.363-3.027c26.359-33.396,36.213-33.584,41.332-30.812c2.332,1.26,3.902,3.427,4.542,6.266
							c1.229,5.451-1.169,13.855-5.306,23.196c6.743-7.183,14.093-13.483,19.861-14.4c2.57-0.411,4.884,0.174,6.698,1.68
							c3.793,3.151,5.43,11.3-11.193,47.847c-2.824,6.209-5.778,12.346-8.499,17.836c1.842-1.938,3.764-3.917,5.715-5.865
							c11.926-11.909,25.021-23.396,31.705-18.313c5.877,4.47,1.281,19.501-16.392,53.611
							c-12.606,24.331-29.024,52.491-43.42,76.828c-8.751,14.795-37.021,47.563-65.757,76.223
							c-20.88,20.824-59.063,56.478-80.195,61.298C1353.38,2971.987,1351.84,2972.175,1350.411,2972.175z M1471.166,2642.65
							c-18.1,0-46.317,53.355-55.999,71.663c-8.2,15.505-17.065,31.431-25.639,46.832c-23.593,42.382-47.99,86.207-58.989,122.541
							c-12.133,40.08-6.86,66.032,16.596,81.673l0,0c1.407,0.938,3.613,1.073,6.559,0.402
							c32.961-7.519,125.546-106.702,142.123-134.726c13.896-23.492,29.78-50.719,42.219-74.537
							c20.668-39.577,19.653-46.882,19.069-48.089c-0.569-0.126-5.549-0.513-24.346,18.371
							c-10.678,10.727-20.319,22.191-20.416,22.306c-0.99,1.179-2.713,1.416-3.985,0.552c-1.273-0.866-1.684-2.556-0.95-3.909
							c0.098-0.182,9.936-18.373,18.659-37.463c16.738-36.631,13.299-41.343,13.145-41.525c-0.296-0.244-0.803-0.525-1.901-0.349
							c-7.952,1.264-23.838,20.033-37.847,39.365c-7.832,12.406-15.103,22.459-16.882,24.893c-0.955,1.304-2.772,1.618-4.108,0.71
							c-1.337-0.909-1.713-2.714-0.851-4.081c0.082-0.131,6.938-10.981,16.079-23.75c1.586-2.497,3.201-5.096,4.8-7.745
							c17.172-28.456,18.31-39.025,17.46-42.793c-0.336-1.488-1.001-2.016-1.543-2.309c-1.251-0.677-8.756-2.437-33.769,29.251
							c-13.673,17.323-25.614,35.902-25.733,36.088c-0.88,1.373-2.697,1.791-4.088,0.941c-1.392-0.85-1.851-2.656-1.031-4.066
							c0.078-0.136,7.922-13.682,15.043-28.941c12.188-26.117,12.266-35.477,11.228-38.732c-0.393-1.23-0.955-1.621-1.401-1.824
							C1473.55,2642.892,1472.38,2642.65,1471.166,2642.65z"/>
					</g>
				</g>
			</g>
			<g>
				<g>
					<path style="fill:#FFFFFF;" d="M846.99,2908.859c0,0,285.564,202.443,387.904,253.156
						c103.375,51.225,274.623-317.565,274.623-317.565c7.733-40.934-71.243-82.964-131.218-74.592
						c-47.791,84.682-111.272,238.77-162.627,207.43c-98.011-59.812-348.749-247.861-348.749-247.861L846.99,2908.859z"/>
				</g>
				<g>
					<g>
						<path d="M1255.832,3169.886c-7.854,0-15.297-1.728-22.27-5.183c-101.378-50.236-385.45-251.371-388.307-253.397l3.47-4.895
							c2.854,2.023,286.542,202.887,387.502,252.915c11.502,5.701,24.586,6.041,38.887,1.015
							c51.879-18.235,112.045-103.324,153.383-171.494c43.375-71.531,75.585-139.863,78.139-145.316
							c2.349-13.421-5.875-25.402-13.228-33.116c-24.966-26.194-74.405-42.62-113.229-37.778
							c-9.049,16.112-18.587,34.532-28.669,54.001c-35.467,68.489-75.667,146.116-113.063,156.567
							c-8.574,2.396-16.761,1.268-24.336-3.355c-97.013-59.202-293.791-206.955-295.768-208.44l3.605-4.797
							c1.974,1.484,198.522,149.064,295.288,208.116c6.182,3.772,12.592,4.657,19.595,2.698
							c34.883-9.749,74.445-86.145,109.35-153.548c10.381-20.046,20.187-38.98,29.506-55.494l0.729-1.292l1.469-0.205
							c40.741-5.685,93.394,11.613,119.866,39.388c12.029,12.62,17.117,26.014,14.714,38.731l-0.069,0.368l-0.158,0.339
							c-0.329,0.708-33.427,71.723-78.583,146.199c-60.877,100.401-113.548,158.974-156.55,174.089
							C1269.734,3168.591,1262.629,3169.886,1255.832,3169.886z"/>
					</g>
				</g>
			</g>
			<g>
				<path style="fill:#FFFFFF;" d="M1285.606,3108.235c0,0-33.74,35.274-84.35,0"/>
				<path d="M1245.74,3126.902c-18.461,0-34.742-8.221-46.199-16.206l3.431-4.922c20.202,14.08,39.911,18.39,58.58,12.814
					c13.84-4.135,21.808-12.345,21.887-12.427l4.336,4.146c-0.367,0.384-9.16,9.445-24.505,14.028
					C1257.271,3126.129,1251.403,3126.902,1245.74,3126.902z"/>
			</g>
		</g>
	</g>
</g>
</svg>
